<svg width="124" height="35" viewBox="0 0 124 35" fill="none" xmlns="http://www.w3.org/2000/svg">
<rect x="0.634033" y="32" width="123" height="3" fill="#CF0C0C"/>
<path d="M40.7651 4.656C41.3891 4.656 41.9731 4.776 42.5171 5.016C43.0611 5.24 43.5251 5.552 43.9091 5.952C44.3091 6.352 44.6211 6.824 44.8451 7.368C45.0851 7.912 45.2051 8.488 45.2051 9.096V9.816C45.2051 10.424 45.0851 11 44.8451 11.544C44.6211 12.072 44.3091 12.544 43.9091 12.96C43.5251 13.36 43.0611 13.672 42.5171 13.896C41.9731 14.12 41.3891 14.232 40.7651 14.232H36.6371V21H33.7571V4.656H40.7651ZM36.6371 7.512V11.376H40.2851C40.9731 11.376 41.4771 11.208 41.7971 10.872C42.1171 10.536 42.2771 10.064 42.2771 9.456C42.2771 8.88 42.1171 8.416 41.7971 8.064C41.4771 7.696 40.9731 7.512 40.2851 7.512H36.6371ZM49.9569 11.28C50.1809 10.912 50.4769 10.592 50.8449 10.32C51.2289 10.032 51.6449 9.792 52.0929 9.6C52.5569 9.408 53.0449 9.264 53.5569 9.168C54.0689 9.072 54.5809 9.024 55.0929 9.024H55.4049V12H55.0929C54.5169 12 53.9249 12.12 53.3169 12.36C52.7089 12.584 52.1489 12.888 51.6369 13.272C51.1409 13.64 50.7329 14.056 50.4129 14.52C50.1089 14.984 49.9569 15.448 49.9569 15.912V21H46.9809V8.688H49.9569V11.28ZM62.3116 8.784C63.0156 8.784 63.6396 8.896 64.1836 9.12C64.7436 9.328 65.2156 9.624 65.5996 10.008C65.9996 10.392 66.3036 10.856 66.5116 11.4C66.7196 11.944 66.8236 12.56 66.8236 13.248V16.536C66.8236 17.208 66.7196 17.824 66.5116 18.384C66.3036 18.928 65.9996 19.4 65.5996 19.8C65.2156 20.184 64.7436 20.48 64.1836 20.688C63.6396 20.896 63.0156 21 62.3116 21H61.3276C60.6396 21 60.0156 20.896 59.4556 20.688C58.8956 20.48 58.4156 20.184 58.0156 19.8C57.6316 19.4 57.3356 18.928 57.1276 18.384C56.9356 17.824 56.8396 17.208 56.8396 16.536V13.248C56.8396 12.56 56.9356 11.944 57.1276 11.4C57.3356 10.856 57.6316 10.392 58.0156 10.008C58.4156 9.624 58.8956 9.328 59.4556 9.12C60.0156 8.896 60.6396 8.784 61.3276 8.784H62.3116ZM61.3276 11.544C60.8316 11.544 60.4076 11.712 60.0556 12.048C59.7196 12.368 59.5516 12.792 59.5516 13.32V16.44C59.5516 16.968 59.7196 17.4 60.0556 17.736C60.4076 18.072 60.8316 18.24 61.3276 18.24H62.3116C62.8236 18.24 63.2396 18.072 63.5596 17.736C63.8956 17.4 64.0636 16.968 64.0636 16.44V13.32C64.0636 12.792 63.8956 12.368 63.5596 12.048C63.2396 11.712 62.8236 11.544 62.3116 11.544H61.3276ZM71.3017 7.464H68.6617V4.656H71.3017V7.464ZM66.3337 22.584H66.8377C67.3817 22.584 67.8057 22.416 68.1097 22.08C68.4137 21.76 68.5657 21.336 68.5657 20.808V8.784H71.3497V20.712C71.3497 21.384 71.2617 21.992 71.0857 22.536C70.9097 23.096 70.6377 23.568 70.2697 23.952C69.9017 24.336 69.4297 24.632 68.8537 24.84C68.2937 25.064 67.6217 25.176 66.8377 25.176H66.3337V22.584ZM73.2007 13.128C73.2007 12.536 73.3127 11.984 73.5367 11.472C73.7607 10.944 74.0567 10.48 74.4247 10.08C74.7927 9.68 75.2167 9.368 75.6967 9.144C76.1767 8.904 76.6567 8.784 77.1367 8.784H79.8727C80.4967 8.784 81.0487 8.92 81.5287 9.192C82.0247 9.448 82.4327 9.784 82.7527 10.2C83.0887 10.6 83.3447 11.056 83.5207 11.568C83.7127 12.064 83.8087 12.552 83.8087 13.032V16.128H76.0327V16.776C76.0327 17.352 76.1927 17.76 76.5127 18C76.8327 18.24 77.2567 18.36 77.7847 18.36H83.3767V21.048H77.1607C76.6167 21.048 76.1047 20.944 75.6247 20.736C75.1447 20.512 74.7207 20.216 74.3527 19.848C74.0007 19.48 73.7207 19.04 73.5127 18.528C73.3047 18.016 73.2007 17.456 73.2007 16.848V13.128ZM76.0567 13.848H81.0247V13.728C81.0247 13.104 80.8647 12.592 80.5447 12.192C80.2247 11.776 79.7927 11.568 79.2487 11.568H77.7607C77.5047 11.568 77.2727 11.632 77.0647 11.76C76.8567 11.872 76.6807 12.024 76.5367 12.216C76.3927 12.408 76.2727 12.64 76.1767 12.912C76.0967 13.168 76.0567 13.44 76.0567 13.728V13.848ZM85.0053 8.784H87.2613V4.656H90.0933V8.784H92.3493V11.544H90.0933V21H87.2613V11.544H85.0053V8.784ZM98.8976 8.784C99.6016 8.784 100.226 8.896 100.77 9.12C101.33 9.328 101.802 9.624 102.186 10.008C102.586 10.392 102.89 10.856 103.098 11.4C103.306 11.944 103.41 12.56 103.41 13.248V16.536C103.41 17.208 103.306 17.824 103.098 18.384C102.89 18.928 102.586 19.4 102.186 19.8C101.802 20.184 101.33 20.48 100.77 20.688C100.226 20.896 99.6016 21 98.8976 21H97.9136C97.2256 21 96.6016 20.896 96.0416 20.688C95.4816 20.48 95.0016 20.184 94.6016 19.8C94.2176 19.4 93.9216 18.928 93.7136 18.384C93.5216 17.824 93.4256 17.208 93.4256 16.536V13.248C93.4256 12.56 93.5216 11.944 93.7136 11.4C93.9216 10.856 94.2176 10.392 94.6016 10.008C95.0016 9.624 95.4816 9.328 96.0416 9.12C96.6016 8.896 97.2256 8.784 97.9136 8.784H98.8976ZM97.9136 11.544C97.4176 11.544 96.9936 11.712 96.6416 12.048C96.3056 12.368 96.1376 12.792 96.1376 13.32V16.44C96.1376 16.968 96.3056 17.4 96.6416 17.736C96.9936 18.072 97.4176 18.24 97.9136 18.24H98.8976C99.4096 18.24 99.8256 18.072 100.146 17.736C100.482 17.4 100.65 16.968 100.65 16.44V13.32C100.65 12.792 100.482 12.368 100.146 12.048C99.8256 11.712 99.4096 11.544 98.8976 11.544H97.9136ZM113.6 11.16H108.824C108.616 11.16 108.44 11.2 108.296 11.28C108.168 11.344 108.056 11.44 107.96 11.568C107.864 11.696 107.792 11.84 107.744 12C107.696 12.144 107.672 12.288 107.672 12.432C107.672 12.736 107.768 13.016 107.96 13.272C108.168 13.512 108.416 13.632 108.704 13.632H111.392C111.952 13.632 112.44 13.728 112.856 13.92C113.288 14.112 113.64 14.376 113.912 14.712C114.2 15.048 114.408 15.448 114.536 15.912C114.68 16.376 114.752 16.872 114.752 17.4V17.472C114.752 18 114.664 18.48 114.488 18.912C114.328 19.344 114.096 19.712 113.792 20.016C113.488 20.32 113.128 20.56 112.712 20.736C112.296 20.912 111.856 21 111.392 21H105.584V18.624H110.576C110.944 18.624 111.28 18.52 111.584 18.312C111.904 18.104 112.072 17.792 112.088 17.376V17.4C112.088 17.16 112.04 16.96 111.944 16.8C111.864 16.64 111.752 16.512 111.608 16.416C111.464 16.304 111.304 16.224 111.128 16.176C110.952 16.128 110.768 16.104 110.576 16.104H108.416C107.712 16.104 107.128 15.992 106.664 15.768C106.216 15.544 105.856 15.256 105.584 14.904C105.328 14.552 105.152 14.152 105.056 13.704C104.96 13.256 104.912 12.8 104.912 12.336C104.912 11.856 104.984 11.392 105.128 10.944C105.272 10.496 105.48 10.104 105.752 9.768C106.04 9.416 106.392 9.144 106.808 8.952C107.224 8.76 107.696 8.664 108.224 8.664H113.6V11.16Z" fill="#CF0C0C"/>
<path d="M21.7264 8.25C21.7264 5.765 19.6274 3.75 17.0384 3.75C15.1034 3.75 13.4414 4.876 12.7264 6.483C12.0114 4.876 10.3494 3.75 8.41344 3.75C5.82644 3.75 3.72644 5.765 3.72644 8.25C3.72644 15.47 12.7264 20.25 12.7264 20.25C12.7264 20.25 21.7264 15.47 21.7264 8.25Z" stroke="#CF0C0C" stroke-width="2" stroke-linecap="round" stroke-linejoin="round"/>
</svg>
