<svg width="1590" height="168" viewBox="0 0 1590 168" fill="none" xmlns="http://www.w3.org/2000/svg">
<mask id="path-1-inside-1_6001_72" fill="white">
<path d="M-183 0H1737V168H-183V0Z"/>
</mask>
<path d="M-183 3H1737V-3H-183V3Z" fill="#FF577F" fill-opacity="0.25" mask="url(#path-1-inside-1_6001_72)"/>
<g clip-path="url(#clip0_6001_72)">
<path d="M779.117 35.389C777.885 34.4153 776.08 33.8937 773.546 33.8937C772.401 33.8763 771.238 33.9806 770.11 34.2067C769.294 34.4327 768.513 34.7978 767.836 35.3021C767.264 35.7368 766.812 36.3279 766.535 36.9886C766.274 37.632 766.136 38.3101 766.153 39.0056V39.7184C766.084 39.9097 766.222 40.0488 766.413 40.0488H769.52C769.659 40.0314 769.763 39.9271 769.78 39.788C769.832 39.0925 770.11 38.4318 770.561 37.9102C771.082 37.319 772.054 37.006 773.477 37.006C774.084 36.9886 774.709 37.0756 775.282 37.2668C775.681 37.4233 776.063 37.632 776.375 37.9102C776.844 38.3796 777.121 39.0056 777.156 39.6663V40.5704C777.156 40.8834 777.087 41.1963 776.965 41.4745C776.861 41.718 776.705 41.944 776.514 42.1179C776.375 42.3091 776.202 42.4482 775.993 42.5699C775.855 42.6743 775.698 42.7612 775.542 42.8307C775.473 42.9003 775.212 42.9698 774.692 43.1611C774.171 43.3524 773.72 43.5436 773.078 43.7523C772.436 43.9609 771.776 44.1348 771.134 44.3956C770.492 44.6564 769.902 44.7781 769.381 44.9868C768.357 45.3171 767.507 46.0126 766.986 46.9341C766.448 47.8209 766.153 48.8293 766.153 49.8552V51.8721C766.188 52.4459 766.309 53.0196 766.483 53.5587C766.691 54.2194 767.073 54.7931 767.576 55.2452C768.201 55.8538 768.947 56.2884 769.78 56.5493C770.978 56.9144 772.227 57.0883 773.477 57.0709C774.726 57.123 775.976 56.9492 777.174 56.5493C778.007 56.2884 778.788 55.8364 779.43 55.2452C779.95 54.7931 780.332 54.2194 780.54 53.5587C780.749 53.0196 780.853 52.4459 780.87 51.8721V39.162C780.87 37.6841 780.228 36.3105 779.117 35.389ZM776.393 52.9675C775.872 53.4891 774.831 53.8021 773.477 53.8021C772.123 53.8021 771.151 53.5413 770.631 53.0196C770.058 52.3242 769.78 51.4548 769.85 50.5507C769.85 50.0986 769.919 49.577 770.179 49.1945C770.388 48.8641 770.613 48.5511 770.891 48.2903C771.151 48.0991 771.533 47.9078 771.863 47.6992C772.245 47.5079 772.835 47.3688 773.286 47.1775C773.737 46.9689 774.223 46.795 774.709 46.6559C775.23 46.5342 775.681 46.3256 776.132 46.2039C776.358 46.1343 776.583 46.03 776.774 45.8735C777.017 45.7344 777.174 45.491 777.226 45.2302L777.156 50.5507C777.226 51.42 776.948 52.2894 776.393 52.9675Z" fill="#B9B9B9"/>
<path d="M762.543 33.8937H764.608C764.747 33.9111 764.851 34.0154 764.869 34.1545V34.2067L764.157 36.9365C764.157 37.0756 764.036 37.1277 763.897 37.1277H762.474C761.832 37.1103 761.189 37.2147 760.599 37.4581C760.183 37.6146 759.801 37.858 759.506 38.171C759.28 38.4144 759.089 38.6926 758.985 39.0055C758.916 39.2837 758.864 39.5619 758.846 39.8401V56.7057C758.864 56.8796 758.725 57.0187 758.569 57.0361C758.551 57.0361 758.551 57.0361 758.534 57.0361H755.428C755.271 57.0187 755.15 56.8796 755.167 56.7057V39.1446C755.167 38.6926 755.237 38.2231 755.358 37.7884C755.48 37.1277 755.809 36.5192 756.261 36.0323C756.885 35.389 757.632 34.8674 758.465 34.537C759.749 34.0328 761.155 33.8068 762.543 33.8937Z" fill="#B9B9B9"/>
<path d="M751.991 51.0027V51.7851C751.991 52.2719 751.922 52.7414 751.8 53.2109C751.661 53.8716 751.349 54.4627 750.898 54.967C750.273 55.6103 749.527 56.1319 748.694 56.4623C747.392 56.9317 746.004 57.1577 744.615 57.1056C743.227 57.1404 741.838 56.9317 740.537 56.4623C739.704 56.1493 738.94 55.6277 738.333 54.967C737.881 54.4801 737.569 53.8716 737.43 53.2109C737.291 52.7588 737.291 52.3067 737.239 51.8546V34.1545C737.222 33.9806 737.361 33.8415 737.517 33.8241C737.534 33.8241 737.534 33.8241 737.552 33.8241H740.589C740.762 33.8067 740.901 33.9458 740.919 34.1197C740.919 34.1371 740.919 34.1371 740.919 34.1545V50.6375C740.936 51.0548 740.971 51.4547 741.057 51.872C741.162 52.2024 741.352 52.5154 741.578 52.7762C741.873 53.1065 742.255 53.3499 742.671 53.489C743.296 53.6977 743.956 53.802 744.615 53.8194C745.292 53.8368 745.986 53.7325 746.628 53.489C747.045 53.3673 747.427 53.1413 747.722 52.8457C747.982 52.6197 748.156 52.3241 748.242 51.9937C748.381 51.5765 748.433 51.1418 748.433 50.6897V34.1545C748.416 33.998 748.537 33.8415 748.694 33.8241H751.8C751.974 33.8067 752.113 33.9458 752.13 34.1197C752.13 34.1371 752.13 34.1371 752.13 34.1545L751.991 51.0027Z" fill="#B9B9B9"/>
<path d="M730.818 25.5131H733.855C734.029 25.4957 734.167 25.6348 734.185 25.7913C734.185 25.8087 734.185 25.826 734.185 25.826V56.7753C734.202 56.9492 734.063 57.0883 733.89 57.1056C733.872 57.1056 733.872 57.1056 733.855 57.1056H730.818C730.644 57.123 730.505 56.9839 730.488 56.8101C730.488 56.7927 730.488 56.7927 730.488 56.7753V25.826C730.558 25.6348 730.679 25.5131 730.818 25.5131Z" fill="#B9B9B9"/>
<path d="M712.751 65.1733C712.768 64.8603 713.011 64.5995 713.341 64.5822H717.038C717.35 64.5995 717.611 64.843 717.628 65.1733V85.6555C717.611 85.9684 717.368 86.2292 717.038 86.2466H713.341C713.029 86.2292 712.768 85.9858 712.751 85.6555V65.1733Z" fill="#B9B9B9"/>
<path d="M722.904 64.843C722.921 64.53 723.182 64.2866 723.494 64.2866H724.258L736.58 76.1621H736.614V65.1734C736.614 64.843 736.875 64.5822 737.205 64.5822H740.901C741.214 64.5996 741.474 64.843 741.491 65.1734V85.9859C741.474 86.2988 741.214 86.5423 740.901 86.5423H740.415C740.276 86.5249 740.138 86.4727 740.016 86.3858L727.815 74.1104H727.781V85.6555C727.781 85.9859 727.52 86.2467 727.191 86.2467H723.529C723.216 86.2293 722.956 85.9859 722.939 85.6555L722.904 64.843Z" fill="#B9B9B9"/>
<path d="M756.382 64.2866C759.471 64.2866 761.762 65.2429 763.845 67.1555C764.088 67.3468 764.122 67.7119 763.932 67.9727C763.914 67.9901 763.897 68.0075 763.879 68.0249L761.467 70.546C761.259 70.7547 760.912 70.7547 760.703 70.546C759.558 69.5376 758.066 68.9638 756.538 68.9638C753.05 68.9638 750.481 71.8674 750.481 75.3275C750.481 78.7702 753.085 81.6043 756.556 81.6043C758.066 81.6043 759.523 81.0827 760.686 80.1264C760.929 79.9351 761.259 79.9525 761.484 80.1611L763.897 82.7171C764.105 82.9605 764.088 83.3256 763.862 83.5517C761.849 85.499 759.159 86.577 756.365 86.5596C750.221 86.5596 745.257 81.5695 745.257 75.4318C745.257 69.2941 750.238 64.2866 756.382 64.2866Z" fill="#B9B9B9"/>
<path d="M767.576 65.1733C767.576 64.843 767.836 64.5822 768.166 64.5822H771.845C772.158 64.5995 772.418 64.843 772.436 65.1733V81.6912H779.777C780.107 81.6912 780.367 81.952 780.367 82.2823V85.6555C780.367 85.9858 780.107 86.2466 779.777 86.2466H768.166C767.836 86.2466 767.576 85.9858 767.576 85.6555V65.1733Z" fill="#B9B9B9"/>
<path d="M782.797 65.1733C782.814 64.8603 783.057 64.5995 783.387 64.5822H787.187C787.517 64.5822 787.778 64.843 787.778 65.1733V77.6921C787.778 79.8655 789.374 81.5868 791.578 81.5868C793.8 81.5868 795.431 79.8481 795.431 77.6921V65.1733C795.431 64.843 795.692 64.5822 796.021 64.5822H799.822C800.134 64.5995 800.395 64.843 800.412 65.1733V77.9529C800.412 82.6475 796.455 86.5596 791.578 86.5596C786.736 86.5596 782.814 82.6649 782.814 77.9529L782.797 65.1733Z" fill="#B9B9B9"/>
<path d="M805.376 65.1733C805.376 64.8603 805.619 64.5995 805.931 64.5822H813.463C819.416 64.5822 824.293 69.4332 824.293 75.3796C824.293 81.3782 819.433 86.2292 813.463 86.2292H805.931C805.619 86.2119 805.376 85.951 805.376 85.6381V65.1733ZM813.151 81.6738C816.639 81.6738 819.173 78.9266 819.173 75.397C819.173 71.9022 816.639 69.155 813.151 69.155H810.183V81.6738H813.151Z" fill="#B9B9B9"/>
<path d="M828.076 65.1733C828.076 64.843 828.337 64.5822 828.666 64.5822H841.44C841.77 64.5822 842.03 64.843 842.03 65.1733V68.5464C842.03 68.8768 841.77 69.1376 841.44 69.1376H832.884V72.9802H839.93C840.242 72.9976 840.503 73.241 840.52 73.5713V76.9445C840.52 77.2748 840.26 77.5356 839.93 77.5356H832.884V81.7086H841.44C841.77 81.7086 842.03 81.9694 842.03 82.2997V85.6728C842.03 86.0032 841.77 86.264 841.44 86.264H828.666C828.337 86.264 828.076 86.0032 828.076 85.6728V65.1733Z" fill="#B9B9B9"/>
<path d="M725.698 35.389C724.466 34.4153 722.661 33.8937 720.127 33.8937C718.982 33.8763 717.819 33.9806 716.691 34.2067C715.858 34.3979 715.094 34.7805 714.435 35.3021C713.862 35.7368 713.411 36.3279 713.133 36.9886C712.873 37.632 712.751 38.3101 712.751 39.0056V39.788C712.734 39.9618 712.873 40.1009 713.029 40.1183C713.046 40.1183 713.046 40.1183 713.064 40.1183H716.101C716.24 40.1009 716.344 39.9966 716.361 39.8575C716.413 39.162 716.691 38.5013 717.142 37.9797C717.663 37.3885 718.635 37.0756 720.058 37.0756C720.665 37.006 721.29 37.0756 721.88 37.2668C722.279 37.4233 722.661 37.632 722.973 37.9102C723.442 38.3622 723.72 39.0056 723.754 39.6663V40.5704C723.754 40.8834 723.685 41.1963 723.563 41.4745C723.459 41.718 723.303 41.944 723.112 42.1179C722.973 42.3091 722.8 42.4482 722.592 42.5699C722.453 42.6743 722.296 42.7612 722.14 42.8307C722.071 42.9003 721.811 42.9698 721.307 43.1611C720.804 43.3524 720.335 43.5436 719.693 43.7523C719.051 43.9609 718.409 44.1348 717.749 44.3956C717.09 44.6564 716.5 44.7781 715.979 44.9868C714.973 45.3171 714.105 46.0126 713.584 46.9341C713.046 47.8209 712.751 48.8293 712.734 49.8552V51.8547C712.768 52.4285 712.89 53.0023 713.064 53.5413C713.272 54.202 713.654 54.7758 714.157 55.2278C714.782 55.8364 715.528 56.2711 716.361 56.5319C717.559 56.897 718.808 57.0709 720.058 57.0535C721.307 57.1056 722.557 56.9318 723.754 56.5319C724.587 56.2711 725.368 55.819 726.028 55.2278C726.548 54.7758 726.93 54.202 727.121 53.5413C727.329 53.0023 727.434 52.4285 727.451 51.8547V39.1446C727.451 37.6841 726.809 36.3105 725.698 35.389ZM723.043 52.9675C722.522 53.4891 721.55 53.8021 720.127 53.8021C718.704 53.8021 717.732 53.5413 717.211 53.0196C716.639 52.3242 716.361 51.4548 716.43 50.5507C716.43 50.0812 716.552 49.6118 716.743 49.1945C716.951 48.8641 717.177 48.5685 717.454 48.2903C717.715 48.0991 718.097 47.9078 718.426 47.6992C718.808 47.5079 719.398 47.3688 719.849 47.1775C720.301 46.9689 720.787 46.795 721.273 46.6559C721.793 46.5342 722.244 46.3256 722.696 46.2039C722.921 46.1343 723.147 46.03 723.338 45.8735C723.581 45.7344 723.737 45.491 723.789 45.2302V50.5507C723.91 51.4374 723.615 52.3068 723.043 52.9675Z" fill="#B9B9B9"/>
</g>
<path d="M670.4 114.272C670.4 115.131 670.264 115.912 669.992 116.616C669.72 117.32 669.336 117.923 668.84 118.424C668.344 118.925 667.747 119.315 667.048 119.592C666.355 119.864 665.587 120 664.744 120H660.464V108.536H664.744C665.587 108.536 666.355 108.675 667.048 108.952C667.747 109.224 668.344 109.613 668.84 110.12C669.336 110.621 669.72 111.224 669.992 111.928C670.264 112.632 670.4 113.413 670.4 114.272ZM668.808 114.272C668.808 113.568 668.712 112.939 668.52 112.384C668.328 111.829 668.056 111.36 667.704 110.976C667.352 110.592 666.925 110.299 666.424 110.096C665.923 109.893 665.363 109.792 664.744 109.792H662.016V118.744H664.744C665.363 118.744 665.923 118.643 666.424 118.44C666.925 118.237 667.352 117.947 667.704 117.568C668.056 117.184 668.328 116.715 668.52 116.16C668.712 115.605 668.808 114.976 668.808 114.272ZM677.615 115.064C677.615 114.733 677.567 114.432 677.471 114.16C677.38 113.883 677.244 113.645 677.063 113.448C676.887 113.245 676.671 113.091 676.415 112.984C676.159 112.872 675.868 112.816 675.543 112.816C674.86 112.816 674.319 113.016 673.919 113.416C673.524 113.811 673.279 114.36 673.183 115.064H677.615ZM678.767 118.864C678.591 119.077 678.38 119.264 678.135 119.424C677.889 119.579 677.625 119.707 677.343 119.808C677.065 119.909 676.777 119.984 676.479 120.032C676.18 120.085 675.884 120.112 675.591 120.112C675.031 120.112 674.513 120.019 674.039 119.832C673.569 119.64 673.161 119.363 672.815 119C672.473 118.632 672.207 118.179 672.015 117.64C671.823 117.101 671.727 116.483 671.727 115.784C671.727 115.219 671.812 114.691 671.983 114.2C672.159 113.709 672.409 113.285 672.735 112.928C673.06 112.565 673.457 112.283 673.927 112.08C674.396 111.872 674.924 111.768 675.511 111.768C675.996 111.768 676.444 111.851 676.855 112.016C677.271 112.176 677.628 112.411 677.927 112.72C678.231 113.024 678.468 113.403 678.639 113.856C678.809 114.304 678.895 114.816 678.895 115.392C678.895 115.616 678.871 115.765 678.823 115.84C678.775 115.915 678.684 115.952 678.551 115.952H673.135C673.151 116.464 673.22 116.909 673.343 117.288C673.471 117.667 673.647 117.984 673.871 118.24C674.095 118.491 674.361 118.68 674.671 118.808C674.98 118.931 675.327 118.992 675.711 118.992C676.068 118.992 676.375 118.952 676.631 118.872C676.892 118.787 677.116 118.696 677.303 118.6C677.489 118.504 677.644 118.416 677.767 118.336C677.895 118.251 678.004 118.208 678.095 118.208C678.212 118.208 678.303 118.253 678.367 118.344L678.767 118.864ZM685.364 113.232C685.3 113.349 685.201 113.408 685.068 113.408C684.988 113.408 684.897 113.379 684.796 113.32C684.694 113.261 684.569 113.197 684.42 113.128C684.276 113.053 684.102 112.987 683.9 112.928C683.697 112.864 683.457 112.832 683.18 112.832C682.94 112.832 682.724 112.864 682.532 112.928C682.34 112.987 682.174 113.069 682.036 113.176C681.902 113.283 681.798 113.408 681.724 113.552C681.654 113.691 681.62 113.843 681.62 114.008C681.62 114.216 681.678 114.389 681.796 114.528C681.918 114.667 682.078 114.787 682.276 114.888C682.473 114.989 682.697 115.08 682.948 115.16C683.198 115.235 683.454 115.317 683.716 115.408C683.982 115.493 684.241 115.589 684.492 115.696C684.742 115.803 684.966 115.936 685.164 116.096C685.361 116.256 685.518 116.453 685.636 116.688C685.758 116.917 685.82 117.195 685.82 117.52C685.82 117.893 685.753 118.24 685.62 118.56C685.486 118.875 685.289 119.149 685.028 119.384C684.766 119.613 684.446 119.795 684.068 119.928C683.689 120.061 683.252 120.128 682.756 120.128C682.19 120.128 681.678 120.037 681.22 119.856C680.761 119.669 680.372 119.432 680.052 119.144L680.388 118.6C680.43 118.531 680.481 118.477 680.54 118.44C680.598 118.403 680.673 118.384 680.764 118.384C680.86 118.384 680.961 118.421 681.068 118.496C681.174 118.571 681.302 118.653 681.452 118.744C681.606 118.835 681.793 118.917 682.012 118.992C682.23 119.067 682.502 119.104 682.828 119.104C683.105 119.104 683.348 119.069 683.556 119C683.764 118.925 683.937 118.827 684.076 118.704C684.214 118.581 684.316 118.44 684.38 118.28C684.449 118.12 684.484 117.949 684.484 117.768C684.484 117.544 684.422 117.36 684.3 117.216C684.182 117.067 684.025 116.941 683.828 116.84C683.63 116.733 683.404 116.643 683.148 116.568C682.897 116.488 682.638 116.405 682.372 116.32C682.11 116.235 681.852 116.139 681.596 116.032C681.345 115.92 681.121 115.781 680.924 115.616C680.726 115.451 680.566 115.248 680.444 115.008C680.326 114.763 680.268 114.467 680.268 114.12C680.268 113.811 680.332 113.515 680.46 113.232C680.588 112.944 680.774 112.693 681.02 112.48C681.265 112.261 681.566 112.088 681.924 111.96C682.281 111.832 682.689 111.768 683.148 111.768C683.681 111.768 684.158 111.853 684.58 112.024C685.006 112.189 685.374 112.419 685.684 112.712L685.364 113.232ZM692.99 115.064C692.99 114.733 692.942 114.432 692.846 114.16C692.755 113.883 692.619 113.645 692.438 113.448C692.262 113.245 692.046 113.091 691.79 112.984C691.534 112.872 691.243 112.816 690.918 112.816C690.235 112.816 689.694 113.016 689.294 113.416C688.899 113.811 688.654 114.36 688.558 115.064H692.99ZM694.142 118.864C693.966 119.077 693.755 119.264 693.51 119.424C693.264 119.579 693 119.707 692.718 119.808C692.44 119.909 692.152 119.984 691.854 120.032C691.555 120.085 691.259 120.112 690.966 120.112C690.406 120.112 689.888 120.019 689.414 119.832C688.944 119.64 688.536 119.363 688.19 119C687.848 118.632 687.582 118.179 687.39 117.64C687.198 117.101 687.102 116.483 687.102 115.784C687.102 115.219 687.187 114.691 687.358 114.2C687.534 113.709 687.784 113.285 688.11 112.928C688.435 112.565 688.832 112.283 689.302 112.08C689.771 111.872 690.299 111.768 690.886 111.768C691.371 111.768 691.819 111.851 692.23 112.016C692.646 112.176 693.003 112.411 693.302 112.72C693.606 113.024 693.843 113.403 694.014 113.856C694.184 114.304 694.27 114.816 694.27 115.392C694.27 115.616 694.246 115.765 694.198 115.84C694.15 115.915 694.059 115.952 693.926 115.952H688.51C688.526 116.464 688.595 116.909 688.718 117.288C688.846 117.667 689.022 117.984 689.246 118.24C689.47 118.491 689.736 118.68 690.046 118.808C690.355 118.931 690.702 118.992 691.086 118.992C691.443 118.992 691.75 118.952 692.006 118.872C692.267 118.787 692.491 118.696 692.678 118.6C692.864 118.504 693.019 118.416 693.142 118.336C693.27 118.251 693.379 118.208 693.47 118.208C693.587 118.208 693.678 118.253 693.742 118.344L694.142 118.864ZM697.363 113.072C697.539 112.875 697.725 112.696 697.923 112.536C698.12 112.376 698.328 112.24 698.547 112.128C698.771 112.011 699.005 111.923 699.251 111.864C699.501 111.8 699.771 111.768 700.059 111.768C700.501 111.768 700.891 111.843 701.227 111.992C701.568 112.136 701.851 112.344 702.075 112.616C702.304 112.883 702.477 113.205 702.595 113.584C702.712 113.963 702.771 114.381 702.771 114.84V120H701.339V114.84C701.339 114.227 701.197 113.752 700.915 113.416C700.637 113.075 700.213 112.904 699.643 112.904C699.221 112.904 698.827 113.005 698.459 113.208C698.096 113.411 697.76 113.685 697.451 114.032V120H696.019V111.896H696.875C697.077 111.896 697.203 111.995 697.251 112.192L697.363 113.072ZM711.713 111.896L708.409 120H707.129L703.825 111.896H704.985C705.102 111.896 705.198 111.925 705.273 111.984C705.347 112.043 705.398 112.112 705.425 112.192L707.481 117.408C707.545 117.605 707.601 117.797 707.649 117.984C707.697 118.171 707.742 118.357 707.785 118.544C707.827 118.357 707.873 118.171 707.921 117.984C707.969 117.797 708.027 117.605 708.097 117.408L710.177 112.192C710.209 112.107 710.262 112.037 710.337 111.984C710.411 111.925 710.499 111.896 710.601 111.896H711.713ZM716.216 111.768C716.808 111.768 717.341 111.867 717.816 112.064C718.291 112.261 718.696 112.541 719.032 112.904C719.368 113.267 719.624 113.707 719.8 114.224C719.981 114.736 720.072 115.309 720.072 115.944C720.072 116.584 719.981 117.16 719.8 117.672C719.624 118.184 719.368 118.621 719.032 118.984C718.696 119.347 718.291 119.627 717.816 119.824C717.341 120.016 716.808 120.112 716.216 120.112C715.619 120.112 715.08 120.016 714.6 119.824C714.125 119.627 713.72 119.347 713.384 118.984C713.048 118.621 712.789 118.184 712.608 117.672C712.432 117.16 712.344 116.584 712.344 115.944C712.344 115.309 712.432 114.736 712.608 114.224C712.789 113.707 713.048 113.267 713.384 112.904C713.72 112.541 714.125 112.261 714.6 112.064C715.08 111.867 715.619 111.768 716.216 111.768ZM716.216 119C717.016 119 717.613 118.733 718.008 118.2C718.403 117.661 718.6 116.912 718.6 115.952C718.6 114.987 718.403 114.235 718.008 113.696C717.613 113.157 717.016 112.888 716.216 112.888C715.811 112.888 715.456 112.957 715.152 113.096C714.853 113.235 714.603 113.435 714.4 113.696C714.203 113.957 714.053 114.28 713.952 114.664C713.856 115.043 713.808 115.472 713.808 115.952C713.808 116.912 714.005 117.661 714.4 118.2C714.8 118.733 715.405 119 716.216 119ZM723.35 108.216V120H721.926V108.216H723.35ZM732.603 111.896L729.299 120H728.019L724.715 111.896H725.875C725.993 111.896 726.089 111.925 726.163 111.984C726.238 112.043 726.289 112.112 726.315 112.192L728.371 117.408C728.435 117.605 728.491 117.797 728.539 117.984C728.587 118.171 728.633 118.357 728.675 118.544C728.718 118.357 728.763 118.171 728.811 117.984C728.859 117.797 728.918 117.605 728.987 117.408L731.067 112.192C731.099 112.107 731.153 112.037 731.227 111.984C731.302 111.925 731.39 111.896 731.491 111.896H732.603ZM735.413 111.896V120H733.989V111.896H735.413ZM735.717 109.352C735.717 109.491 735.688 109.621 735.629 109.744C735.576 109.861 735.501 109.968 735.405 110.064C735.315 110.155 735.205 110.227 735.077 110.28C734.955 110.333 734.824 110.36 734.685 110.36C734.547 110.36 734.416 110.333 734.293 110.28C734.176 110.227 734.072 110.155 733.981 110.064C733.891 109.968 733.819 109.861 733.765 109.744C733.712 109.621 733.685 109.491 733.685 109.352C733.685 109.213 733.712 109.083 733.765 108.96C733.819 108.832 733.891 108.723 733.981 108.632C734.072 108.536 734.176 108.461 734.293 108.408C734.416 108.355 734.547 108.328 734.685 108.328C734.824 108.328 734.955 108.355 735.077 108.408C735.205 108.461 735.315 108.536 735.405 108.632C735.501 108.723 735.576 108.832 735.629 108.96C735.688 109.083 735.717 109.213 735.717 109.352ZM743.033 113.824C742.766 113.467 742.478 113.219 742.169 113.08C741.86 112.936 741.513 112.864 741.129 112.864C740.377 112.864 739.798 113.133 739.393 113.672C738.988 114.211 738.785 114.979 738.785 115.976C738.785 116.504 738.83 116.957 738.921 117.336C739.012 117.709 739.145 118.019 739.321 118.264C739.497 118.504 739.713 118.68 739.969 118.792C740.225 118.904 740.516 118.96 740.841 118.96C741.31 118.96 741.718 118.853 742.065 118.64C742.417 118.427 742.74 118.125 743.033 117.736V113.824ZM744.457 108.216V120H743.609C743.406 120 743.278 119.901 743.225 119.704L743.097 118.72C742.75 119.136 742.356 119.472 741.913 119.728C741.47 119.984 740.958 120.112 740.377 120.112C739.913 120.112 739.492 120.024 739.113 119.848C738.734 119.667 738.412 119.403 738.145 119.056C737.878 118.709 737.673 118.277 737.529 117.76C737.385 117.243 737.313 116.648 737.313 115.976C737.313 115.379 737.393 114.824 737.553 114.312C737.713 113.795 737.942 113.347 738.241 112.968C738.54 112.589 738.905 112.293 739.337 112.08C739.774 111.861 740.265 111.752 740.809 111.752C741.305 111.752 741.729 111.837 742.081 112.008C742.438 112.173 742.756 112.405 743.033 112.704V108.216H744.457ZM750.122 111.768C750.714 111.768 751.247 111.867 751.722 112.064C752.197 112.261 752.602 112.541 752.938 112.904C753.274 113.267 753.53 113.707 753.706 114.224C753.887 114.736 753.978 115.309 753.978 115.944C753.978 116.584 753.887 117.16 753.706 117.672C753.53 118.184 753.274 118.621 752.938 118.984C752.602 119.347 752.197 119.627 751.722 119.824C751.247 120.016 750.714 120.112 750.122 120.112C749.525 120.112 748.986 120.016 748.506 119.824C748.031 119.627 747.626 119.347 747.29 118.984C746.954 118.621 746.695 118.184 746.514 117.672C746.338 117.16 746.25 116.584 746.25 115.944C746.25 115.309 746.338 114.736 746.514 114.224C746.695 113.707 746.954 113.267 747.29 112.904C747.626 112.541 748.031 112.261 748.506 112.064C748.986 111.867 749.525 111.768 750.122 111.768ZM750.122 119C750.922 119 751.519 118.733 751.914 118.2C752.309 117.661 752.506 116.912 752.506 115.952C752.506 114.987 752.309 114.235 751.914 113.696C751.519 113.157 750.922 112.888 750.122 112.888C749.717 112.888 749.362 112.957 749.058 113.096C748.759 113.235 748.509 113.435 748.306 113.696C748.109 113.957 747.959 114.28 747.858 114.664C747.762 115.043 747.714 115.472 747.714 115.952C747.714 116.912 747.911 117.661 748.306 118.2C748.706 118.733 749.311 119 750.122 119ZM761.31 118.048C761.571 118.4 761.857 118.648 762.166 118.792C762.475 118.936 762.822 119.008 763.206 119.008C763.963 119.008 764.545 118.739 764.95 118.2C765.355 117.661 765.558 116.893 765.558 115.896C765.558 115.368 765.51 114.915 765.414 114.536C765.323 114.157 765.19 113.848 765.014 113.608C764.838 113.363 764.622 113.184 764.366 113.072C764.11 112.96 763.819 112.904 763.494 112.904C763.03 112.904 762.622 113.011 762.27 113.224C761.923 113.437 761.603 113.739 761.31 114.128V118.048ZM761.238 113.152C761.579 112.731 761.974 112.392 762.422 112.136C762.87 111.88 763.382 111.752 763.958 111.752C764.427 111.752 764.851 111.843 765.23 112.024C765.609 112.2 765.931 112.464 766.198 112.816C766.465 113.163 766.67 113.595 766.814 114.112C766.958 114.629 767.03 115.224 767.03 115.896C767.03 116.493 766.95 117.051 766.79 117.568C766.63 118.08 766.398 118.525 766.094 118.904C765.795 119.277 765.427 119.573 764.99 119.792C764.558 120.005 764.07 120.112 763.526 120.112C763.03 120.112 762.603 120.029 762.246 119.864C761.894 119.693 761.582 119.459 761.31 119.16V122.744H759.878V111.896H760.734C760.937 111.896 761.062 111.995 761.11 112.192L761.238 113.152ZM772.263 111.768C772.855 111.768 773.388 111.867 773.863 112.064C774.337 112.261 774.743 112.541 775.079 112.904C775.415 113.267 775.671 113.707 775.847 114.224C776.028 114.736 776.119 115.309 776.119 115.944C776.119 116.584 776.028 117.16 775.847 117.672C775.671 118.184 775.415 118.621 775.079 118.984C774.743 119.347 774.337 119.627 773.863 119.824C773.388 120.016 772.855 120.112 772.263 120.112C771.665 120.112 771.127 120.016 770.647 119.824C770.172 119.627 769.767 119.347 769.431 118.984C769.095 118.621 768.836 118.184 768.655 117.672C768.479 117.16 768.391 116.584 768.391 115.944C768.391 115.309 768.479 114.736 768.655 114.224C768.836 113.707 769.095 113.267 769.431 112.904C769.767 112.541 770.172 112.261 770.647 112.064C771.127 111.867 771.665 111.768 772.263 111.768ZM772.263 119C773.063 119 773.66 118.733 774.055 118.2C774.449 117.661 774.647 116.912 774.647 115.952C774.647 114.987 774.449 114.235 774.055 113.696C773.66 113.157 773.063 112.888 772.263 112.888C771.857 112.888 771.503 112.957 771.199 113.096C770.9 113.235 770.649 113.435 770.447 113.696C770.249 113.957 770.1 114.28 769.999 114.664C769.903 115.043 769.855 115.472 769.855 115.952C769.855 116.912 770.052 117.661 770.447 118.2C770.847 118.733 771.452 119 772.263 119ZM779.277 113.52C779.533 112.965 779.848 112.533 780.221 112.224C780.594 111.909 781.05 111.752 781.589 111.752C781.76 111.752 781.922 111.771 782.077 111.808C782.237 111.845 782.378 111.904 782.501 111.984L782.397 113.048C782.365 113.181 782.285 113.248 782.157 113.248C782.082 113.248 781.973 113.232 781.829 113.2C781.685 113.168 781.522 113.152 781.341 113.152C781.085 113.152 780.856 113.189 780.653 113.264C780.456 113.339 780.277 113.451 780.117 113.6C779.962 113.744 779.821 113.925 779.693 114.144C779.57 114.357 779.458 114.603 779.357 114.88V120H777.925V111.896H778.741C778.896 111.896 779.002 111.925 779.061 111.984C779.12 112.043 779.16 112.144 779.181 112.288L779.277 113.52ZM791.322 116.04C791.322 116.68 791.242 117.253 791.082 117.76C790.928 118.267 790.696 118.696 790.386 119.048C790.082 119.395 789.706 119.661 789.258 119.848C788.81 120.035 788.296 120.128 787.714 120.128C787.186 120.128 786.648 120.053 786.098 119.904C786.109 119.749 786.122 119.597 786.138 119.448C786.154 119.293 786.168 119.141 786.178 118.992C786.189 118.901 786.221 118.829 786.274 118.776C786.333 118.717 786.421 118.688 786.538 118.688C786.634 118.688 786.76 118.712 786.914 118.76C787.074 118.808 787.288 118.832 787.554 118.832C787.906 118.832 788.221 118.779 788.498 118.672C788.776 118.565 789.008 118.4 789.194 118.176C789.381 117.952 789.522 117.667 789.618 117.32C789.72 116.968 789.77 116.552 789.77 116.072V108.536H791.322V116.04ZM798.943 115.064C798.943 114.733 798.895 114.432 798.799 114.16C798.708 113.883 798.572 113.645 798.391 113.448C798.215 113.245 797.999 113.091 797.743 112.984C797.487 112.872 797.196 112.816 796.871 112.816C796.188 112.816 795.647 113.016 795.247 113.416C794.852 113.811 794.607 114.36 794.511 115.064H798.943ZM800.095 118.864C799.919 119.077 799.708 119.264 799.463 119.424C799.217 119.579 798.953 119.707 798.671 119.808C798.393 119.909 798.105 119.984 797.807 120.032C797.508 120.085 797.212 120.112 796.919 120.112C796.359 120.112 795.841 120.019 795.367 119.832C794.897 119.64 794.489 119.363 794.143 119C793.801 118.632 793.535 118.179 793.343 117.64C793.151 117.101 793.055 116.483 793.055 115.784C793.055 115.219 793.14 114.691 793.311 114.2C793.487 113.709 793.737 113.285 794.063 112.928C794.388 112.565 794.785 112.283 795.255 112.08C795.724 111.872 796.252 111.768 796.839 111.768C797.324 111.768 797.772 111.851 798.183 112.016C798.599 112.176 798.956 112.411 799.255 112.72C799.559 113.024 799.796 113.403 799.967 113.856C800.137 114.304 800.223 114.816 800.223 115.392C800.223 115.616 800.199 115.765 800.151 115.84C800.103 115.915 800.012 115.952 799.879 115.952H794.463C794.479 116.464 794.548 116.909 794.671 117.288C794.799 117.667 794.975 117.984 795.199 118.24C795.423 118.491 795.689 118.68 795.999 118.808C796.308 118.931 796.655 118.992 797.039 118.992C797.396 118.992 797.703 118.952 797.959 118.872C798.22 118.787 798.444 118.696 798.631 118.6C798.817 118.504 798.972 118.416 799.095 118.336C799.223 118.251 799.332 118.208 799.423 118.208C799.54 118.208 799.631 118.253 799.695 118.344L800.095 118.864ZM799.319 110.648H798.367C798.308 110.648 798.247 110.637 798.183 110.616C798.124 110.595 798.065 110.555 798.007 110.496L797.023 109.44C796.975 109.397 796.932 109.347 796.895 109.288C796.868 109.315 796.844 109.341 796.823 109.368C796.801 109.395 796.78 109.419 796.759 109.44L795.767 110.496C795.655 110.597 795.535 110.648 795.407 110.648H794.423L796.207 108.536H797.535L799.319 110.648ZM802.422 120V113.112L801.526 113.008C801.414 112.981 801.32 112.941 801.246 112.888C801.176 112.829 801.142 112.747 801.142 112.64V112.056H802.422V111.392C802.422 110.928 802.486 110.517 802.614 110.16C802.747 109.797 802.934 109.493 803.174 109.248C803.419 108.997 803.712 108.808 804.054 108.68C804.395 108.552 804.779 108.488 805.206 108.488C805.568 108.488 805.902 108.541 806.206 108.648L806.174 109.368C806.163 109.496 806.091 109.565 805.958 109.576C805.83 109.587 805.656 109.592 805.438 109.592C805.192 109.592 804.968 109.624 804.766 109.688C804.568 109.747 804.398 109.848 804.254 109.992C804.11 110.136 803.998 110.328 803.918 110.568C803.843 110.803 803.806 111.093 803.806 111.44V112.056H807.462V111.184C807.462 110.72 807.526 110.309 807.654 109.952C807.787 109.589 807.974 109.285 808.214 109.04C808.459 108.789 808.752 108.6 809.094 108.472C809.435 108.344 809.819 108.28 810.246 108.28C810.603 108.28 810.936 108.333 811.246 108.44L811.214 109.152C811.203 109.28 811.131 109.349 810.998 109.36C810.87 109.371 810.696 109.376 810.478 109.376C810.232 109.376 810.008 109.408 809.806 109.472C809.608 109.536 809.438 109.64 809.294 109.784C809.15 109.928 809.038 110.117 808.958 110.352C808.883 110.587 808.846 110.877 808.846 111.224V112.056H811.182V113.088H808.894V120H807.462V113.088H803.854V120H802.422ZM817.693 115.064C817.693 114.733 817.645 114.432 817.549 114.16C817.458 113.883 817.322 113.645 817.141 113.448C816.965 113.245 816.749 113.091 816.493 112.984C816.237 112.872 815.946 112.816 815.621 112.816C814.938 112.816 814.397 113.016 813.997 113.416C813.602 113.811 813.357 114.36 813.261 115.064H817.693ZM818.845 118.864C818.669 119.077 818.458 119.264 818.213 119.424C817.967 119.579 817.703 119.707 817.421 119.808C817.143 119.909 816.855 119.984 816.557 120.032C816.258 120.085 815.962 120.112 815.669 120.112C815.109 120.112 814.591 120.019 814.117 119.832C813.647 119.64 813.239 119.363 812.893 119C812.551 118.632 812.285 118.179 812.093 117.64C811.901 117.101 811.805 116.483 811.805 115.784C811.805 115.219 811.89 114.691 812.061 114.2C812.237 113.709 812.487 113.285 812.813 112.928C813.138 112.565 813.535 112.283 814.005 112.08C814.474 111.872 815.002 111.768 815.589 111.768C816.074 111.768 816.522 111.851 816.933 112.016C817.349 112.176 817.706 112.411 818.005 112.72C818.309 113.024 818.546 113.403 818.717 113.856C818.887 114.304 818.973 114.816 818.973 115.392C818.973 115.616 818.949 115.765 818.901 115.84C818.853 115.915 818.762 115.952 818.629 115.952H813.213C813.229 116.464 813.298 116.909 813.421 117.288C813.549 117.667 813.725 117.984 813.949 118.24C814.173 118.491 814.439 118.68 814.749 118.808C815.058 118.931 815.405 118.992 815.789 118.992C816.146 118.992 816.453 118.952 816.709 118.872C816.97 118.787 817.194 118.696 817.381 118.6C817.567 118.504 817.722 118.416 817.845 118.336C817.973 118.251 818.082 118.208 818.173 118.208C818.29 118.208 818.381 118.253 818.445 118.344L818.845 118.864ZM822.074 113.52C822.33 112.965 822.644 112.533 823.018 112.224C823.391 111.909 823.847 111.752 824.386 111.752C824.556 111.752 824.719 111.771 824.874 111.808C825.034 111.845 825.175 111.904 825.298 111.984L825.194 113.048C825.162 113.181 825.082 113.248 824.954 113.248C824.879 113.248 824.77 113.232 824.626 113.2C824.482 113.168 824.319 113.152 824.138 113.152C823.882 113.152 823.652 113.189 823.45 113.264C823.252 113.339 823.074 113.451 822.914 113.6C822.759 113.744 822.618 113.925 822.49 114.144C822.367 114.357 822.255 114.603 822.154 114.88V120H820.722V111.896H821.538C821.692 111.896 821.799 111.925 821.858 111.984C821.916 112.043 821.956 112.144 821.978 112.288L822.074 113.52ZM831.223 113.232C831.159 113.349 831.06 113.408 830.927 113.408C830.847 113.408 830.756 113.379 830.655 113.32C830.554 113.261 830.428 113.197 830.279 113.128C830.135 113.053 829.962 112.987 829.759 112.928C829.556 112.864 829.316 112.832 829.039 112.832C828.799 112.832 828.583 112.864 828.391 112.928C828.199 112.987 828.034 113.069 827.895 113.176C827.762 113.283 827.658 113.408 827.583 113.552C827.514 113.691 827.479 113.843 827.479 114.008C827.479 114.216 827.538 114.389 827.655 114.528C827.778 114.667 827.938 114.787 828.135 114.888C828.332 114.989 828.556 115.08 828.807 115.16C829.058 115.235 829.314 115.317 829.575 115.408C829.842 115.493 830.1 115.589 830.351 115.696C830.602 115.803 830.826 115.936 831.023 116.096C831.22 116.256 831.378 116.453 831.495 116.688C831.618 116.917 831.679 117.195 831.679 117.52C831.679 117.893 831.612 118.24 831.479 118.56C831.346 118.875 831.148 119.149 830.887 119.384C830.626 119.613 830.306 119.795 829.927 119.928C829.548 120.061 829.111 120.128 828.615 120.128C828.05 120.128 827.538 120.037 827.079 119.856C826.62 119.669 826.231 119.432 825.911 119.144L826.247 118.6C826.29 118.531 826.34 118.477 826.399 118.44C826.458 118.403 826.532 118.384 826.623 118.384C826.719 118.384 826.82 118.421 826.927 118.496C827.034 118.571 827.162 118.653 827.311 118.744C827.466 118.835 827.652 118.917 827.871 118.992C828.09 119.067 828.362 119.104 828.687 119.104C828.964 119.104 829.207 119.069 829.415 119C829.623 118.925 829.796 118.827 829.935 118.704C830.074 118.581 830.175 118.44 830.239 118.28C830.308 118.12 830.343 117.949 830.343 117.768C830.343 117.544 830.282 117.36 830.159 117.216C830.042 117.067 829.884 116.941 829.687 116.84C829.49 116.733 829.263 116.643 829.007 116.568C828.756 116.488 828.498 116.405 828.231 116.32C827.97 116.235 827.711 116.139 827.455 116.032C827.204 115.92 826.98 115.781 826.783 115.616C826.586 115.451 826.426 115.248 826.303 115.008C826.186 114.763 826.127 114.467 826.127 114.12C826.127 113.811 826.191 113.515 826.319 113.232C826.447 112.944 826.634 112.693 826.879 112.48C827.124 112.261 827.426 112.088 827.783 111.96C828.14 111.832 828.548 111.768 829.007 111.768C829.54 111.768 830.018 111.853 830.439 112.024C830.866 112.189 831.234 112.419 831.543 112.712L831.223 113.232ZM836.841 111.768C837.433 111.768 837.966 111.867 838.441 112.064C838.916 112.261 839.321 112.541 839.657 112.904C839.993 113.267 840.249 113.707 840.425 114.224C840.606 114.736 840.697 115.309 840.697 115.944C840.697 116.584 840.606 117.16 840.425 117.672C840.249 118.184 839.993 118.621 839.657 118.984C839.321 119.347 838.916 119.627 838.441 119.824C837.966 120.016 837.433 120.112 836.841 120.112C836.244 120.112 835.705 120.016 835.225 119.824C834.75 119.627 834.345 119.347 834.009 118.984C833.673 118.621 833.414 118.184 833.233 117.672C833.057 117.16 832.969 116.584 832.969 115.944C832.969 115.309 833.057 114.736 833.233 114.224C833.414 113.707 833.673 113.267 834.009 112.904C834.345 112.541 834.75 112.261 835.225 112.064C835.705 111.867 836.244 111.768 836.841 111.768ZM836.841 119C837.641 119 838.238 118.733 838.633 118.2C839.028 117.661 839.225 116.912 839.225 115.952C839.225 114.987 839.028 114.235 838.633 113.696C838.238 113.157 837.641 112.888 836.841 112.888C836.436 112.888 836.081 112.957 835.777 113.096C835.478 113.235 835.228 113.435 835.025 113.696C834.828 113.957 834.678 114.28 834.577 114.664C834.481 115.043 834.433 115.472 834.433 115.952C834.433 116.912 834.63 117.661 835.025 118.2C835.425 118.733 836.03 119 836.841 119ZM843.847 113.072C844.023 112.875 844.21 112.696 844.407 112.536C844.604 112.376 844.812 112.24 845.031 112.128C845.255 112.011 845.49 111.923 845.735 111.864C845.986 111.8 846.255 111.768 846.543 111.768C846.986 111.768 847.375 111.843 847.711 111.992C848.052 112.136 848.335 112.344 848.559 112.616C848.788 112.883 848.962 113.205 849.079 113.584C849.196 113.963 849.255 114.381 849.255 114.84V120H847.823V114.84C847.823 114.227 847.682 113.752 847.399 113.416C847.122 113.075 846.698 112.904 846.127 112.904C845.706 112.904 845.311 113.005 844.943 113.208C844.58 113.411 844.244 113.685 843.935 114.032V120H842.503V111.896H843.359C843.562 111.896 843.687 111.995 843.735 112.192L843.847 113.072ZM867.783 108.536V120H866.423V111.576C866.423 111.464 866.425 111.344 866.431 111.216C866.441 111.088 866.452 110.957 866.463 110.824L862.527 117.992C862.404 118.232 862.217 118.352 861.967 118.352H861.743C861.492 118.352 861.305 118.232 861.183 117.992L857.167 110.792C857.199 111.075 857.215 111.336 857.215 111.576V120H855.855V108.536H856.999C857.137 108.536 857.244 108.549 857.319 108.576C857.393 108.603 857.465 108.677 857.535 108.8L861.495 115.856C861.559 115.984 861.62 116.117 861.679 116.256C861.743 116.395 861.801 116.536 861.855 116.68C861.908 116.536 861.964 116.395 862.023 116.256C862.081 116.112 862.145 115.976 862.215 115.848L866.103 108.8C866.167 108.677 866.236 108.603 866.311 108.576C866.391 108.549 866.5 108.536 866.639 108.536H867.783ZM874.536 116.352C873.88 116.373 873.32 116.427 872.856 116.512C872.397 116.592 872.021 116.699 871.728 116.832C871.44 116.965 871.229 117.123 871.096 117.304C870.968 117.485 870.904 117.688 870.904 117.912C870.904 118.125 870.938 118.309 871.008 118.464C871.077 118.619 871.17 118.747 871.288 118.848C871.41 118.944 871.552 119.016 871.712 119.064C871.877 119.107 872.053 119.128 872.24 119.128C872.49 119.128 872.72 119.104 872.928 119.056C873.136 119.003 873.33 118.928 873.512 118.832C873.698 118.736 873.874 118.621 874.04 118.488C874.21 118.355 874.376 118.203 874.536 118.032V116.352ZM869.936 113.04C870.384 112.608 870.866 112.285 871.384 112.072C871.901 111.859 872.474 111.752 873.104 111.752C873.557 111.752 873.96 111.827 874.312 111.976C874.664 112.125 874.96 112.333 875.2 112.6C875.44 112.867 875.621 113.189 875.744 113.568C875.866 113.947 875.928 114.363 875.928 114.816V120H875.296C875.157 120 875.05 119.979 874.976 119.936C874.901 119.888 874.842 119.797 874.8 119.664L874.64 118.896C874.426 119.093 874.218 119.269 874.016 119.424C873.813 119.573 873.6 119.701 873.376 119.808C873.152 119.909 872.912 119.987 872.656 120.04C872.405 120.099 872.125 120.128 871.816 120.128C871.501 120.128 871.205 120.085 870.928 120C870.65 119.909 870.408 119.776 870.2 119.6C869.997 119.424 869.834 119.203 869.712 118.936C869.594 118.664 869.536 118.344 869.536 117.976C869.536 117.656 869.624 117.349 869.8 117.056C869.976 116.757 870.261 116.493 870.656 116.264C871.05 116.035 871.565 115.848 872.2 115.704C872.834 115.555 873.613 115.469 874.536 115.448V114.816C874.536 114.187 874.4 113.712 874.128 113.392C873.856 113.067 873.458 112.904 872.936 112.904C872.584 112.904 872.288 112.949 872.048 113.04C871.813 113.125 871.608 113.224 871.432 113.336C871.261 113.443 871.112 113.541 870.984 113.632C870.861 113.717 870.738 113.76 870.616 113.76C870.52 113.76 870.437 113.736 870.368 113.688C870.298 113.635 870.24 113.571 870.192 113.496L869.936 113.04ZM884.753 120H883.385C883.267 120 883.174 119.971 883.105 119.912C883.041 119.848 882.987 119.779 882.945 119.704L880.905 116.528C880.883 116.603 880.859 116.677 880.833 116.752C880.811 116.821 880.779 116.885 880.737 116.944L878.849 119.704C878.795 119.779 878.737 119.848 878.673 119.912C878.614 119.971 878.531 120 878.425 120H877.153L879.993 115.84L877.265 111.896H878.633C878.75 111.896 878.835 111.915 878.889 111.952C878.942 111.989 878.99 112.043 879.033 112.112L881.025 115.152C881.067 114.997 881.134 114.848 881.225 114.704L882.969 112.144C883.017 112.069 883.067 112.011 883.121 111.968C883.179 111.92 883.249 111.896 883.329 111.896H884.641L881.913 115.768L884.753 120ZM897.242 111.896L894.618 120H893.49C893.351 120 893.255 119.909 893.201 119.728L891.41 114.232C891.367 114.109 891.332 113.987 891.306 113.864C891.279 113.736 891.252 113.611 891.226 113.488C891.199 113.611 891.172 113.736 891.146 113.864C891.119 113.987 891.084 114.112 891.042 114.24L889.218 119.728C889.17 119.909 889.063 120 888.898 120H887.826L885.201 111.896H886.322C886.434 111.896 886.527 111.925 886.602 111.984C886.682 112.043 886.735 112.112 886.762 112.192L888.314 117.408C888.404 117.792 888.476 118.155 888.53 118.496C888.578 118.32 888.626 118.141 888.674 117.96C888.727 117.779 888.783 117.595 888.842 117.408L890.554 112.16C890.58 112.08 890.626 112.013 890.69 111.96C890.759 111.907 890.842 111.88 890.938 111.88H891.562C891.668 111.88 891.756 111.907 891.826 111.96C891.895 112.013 891.943 112.08 891.97 112.16L893.642 117.408C893.7 117.595 893.754 117.779 893.802 117.96C893.85 118.141 893.895 118.32 893.938 118.496C893.964 118.32 893.996 118.144 894.034 117.968C894.076 117.787 894.122 117.6 894.17 117.408L895.754 112.192C895.78 112.107 895.831 112.037 895.906 111.984C895.98 111.925 896.068 111.896 896.17 111.896H897.242ZM903.943 115.064C903.943 114.733 903.895 114.432 903.799 114.16C903.708 113.883 903.572 113.645 903.391 113.448C903.215 113.245 902.999 113.091 902.743 112.984C902.487 112.872 902.196 112.816 901.871 112.816C901.188 112.816 900.647 113.016 900.247 113.416C899.852 113.811 899.607 114.36 899.511 115.064H903.943ZM905.095 118.864C904.919 119.077 904.708 119.264 904.463 119.424C904.217 119.579 903.953 119.707 903.671 119.808C903.393 119.909 903.105 119.984 902.807 120.032C902.508 120.085 902.212 120.112 901.919 120.112C901.359 120.112 900.841 120.019 900.367 119.832C899.897 119.64 899.489 119.363 899.143 119C898.801 118.632 898.535 118.179 898.343 117.64C898.151 117.101 898.055 116.483 898.055 115.784C898.055 115.219 898.14 114.691 898.311 114.2C898.487 113.709 898.737 113.285 899.063 112.928C899.388 112.565 899.785 112.283 900.255 112.08C900.724 111.872 901.252 111.768 901.839 111.768C902.324 111.768 902.772 111.851 903.183 112.016C903.599 112.176 903.956 112.411 904.255 112.72C904.559 113.024 904.796 113.403 904.967 113.856C905.137 114.304 905.223 114.816 905.223 115.392C905.223 115.616 905.199 115.765 905.151 115.84C905.103 115.915 905.012 115.952 904.879 115.952H899.463C899.479 116.464 899.548 116.909 899.671 117.288C899.799 117.667 899.975 117.984 900.199 118.24C900.423 118.491 900.689 118.68 900.999 118.808C901.308 118.931 901.655 118.992 902.039 118.992C902.396 118.992 902.703 118.952 902.959 118.872C903.22 118.787 903.444 118.696 903.631 118.6C903.817 118.504 903.972 118.416 904.095 118.336C904.223 118.251 904.332 118.208 904.423 118.208C904.54 118.208 904.631 118.253 904.695 118.344L905.095 118.864ZM908.444 108.216V120H907.02V108.216H908.444ZM912.225 108.216V120H910.801V108.216H912.225ZM914.294 119.12C914.294 118.981 914.318 118.851 914.366 118.728C914.42 118.605 914.489 118.499 914.574 118.408C914.665 118.317 914.772 118.245 914.894 118.192C915.017 118.139 915.148 118.112 915.286 118.112C915.425 118.112 915.556 118.139 915.678 118.192C915.801 118.245 915.908 118.317 915.998 118.408C916.089 118.499 916.161 118.605 916.214 118.728C916.268 118.851 916.294 118.981 916.294 119.12C916.294 119.264 916.268 119.397 916.214 119.52C916.161 119.637 916.089 119.741 915.998 119.832C915.908 119.923 915.801 119.992 915.678 120.04C915.556 120.093 915.425 120.12 915.286 120.12C915.148 120.12 915.017 120.093 914.894 120.04C914.772 119.992 914.665 119.923 914.574 119.832C914.489 119.741 914.42 119.637 914.366 119.52C914.318 119.397 914.294 119.264 914.294 119.12Z" fill="#B9B9B9"/>
<defs>
<clipPath id="clip0_6001_72">
<rect width="130" height="62" fill="white" transform="translate(712 25)"/>
</clipPath>
</defs>
</svg>
