<svg width="144" height="33" viewBox="0 0 144 33" fill="none" xmlns="http://www.w3.org/2000/svg">
<rect y="30" width="143" height="3" fill="#CF0C0C"/>
<path d="M45.09 19.5H42.066V12.684H36.81V19.5H33.762V3.156H36.81V9.948H42.066V3.156H45.09V19.5ZM46.9712 11.148C47.0192 10.636 47.1312 10.148 47.3072 9.684C47.4992 9.22 47.7712 8.812 48.1232 8.46C48.4752 8.108 48.9152 7.828 49.4432 7.62C49.9712 7.396 50.5792 7.284 51.2672 7.284H52.7072C53.4272 7.284 54.0512 7.404 54.5792 7.644C55.1232 7.884 55.5712 8.204 55.9232 8.604C56.2752 8.988 56.5392 9.436 56.7152 9.948C56.8912 10.444 56.9792 10.948 56.9792 11.46V19.5H50.1632C49.6352 19.5 49.1632 19.404 48.7472 19.212C48.3312 19.004 47.9792 18.74 47.6912 18.42C47.4192 18.084 47.2112 17.692 47.0672 17.244C46.9392 16.796 46.8752 16.316 46.8752 15.804C46.8752 15.308 46.9472 14.844 47.0912 14.412C47.2352 13.98 47.4432 13.612 47.7152 13.308C47.9872 12.988 48.3232 12.74 48.7232 12.564C49.1392 12.372 49.6032 12.276 50.1152 12.276H54.2192V12.036C54.2192 11.748 54.1952 11.484 54.1472 11.244C54.0992 10.988 54.0112 10.772 53.8832 10.596C53.7552 10.42 53.5632 10.284 53.3072 10.188C53.0512 10.076 52.7072 10.02 52.2752 10.02H51.6752C51.0352 10.02 50.5792 10.116 50.3072 10.308C50.0352 10.484 49.8512 10.764 49.7552 11.148H46.9712ZM49.4432 15.804C49.4432 16.22 49.5232 16.532 49.6832 16.74C49.8592 16.932 50.0512 17.028 50.2592 17.028H54.2192V14.58H50.2592C50.0512 14.58 49.8592 14.684 49.6832 14.892C49.5232 15.1 49.4432 15.404 49.4432 15.804ZM64.1642 7.284C64.8682 7.284 65.4922 7.396 66.0362 7.62C66.5962 7.828 67.0682 8.124 67.4522 8.508C67.8522 8.892 68.1562 9.356 68.3642 9.9C68.5722 10.444 68.6762 11.06 68.6762 11.748V15.036C68.6762 15.708 68.5722 16.324 68.3642 16.884C68.1562 17.428 67.8522 17.9 67.4522 18.3C67.0682 18.684 66.5962 18.98 66.0362 19.188C65.4922 19.396 64.8682 19.5 64.1642 19.5H63.2042C62.5002 19.5 61.8682 19.396 61.3082 19.188C60.7642 18.98 60.2922 18.684 59.8922 18.3C59.5082 17.9 59.2122 17.428 59.0042 16.884C58.7962 16.324 58.6922 15.708 58.6922 15.036V11.748V11.556V3.156H61.5242V7.596C62.1162 7.388 62.7402 7.284 63.3962 7.284H64.1642ZM63.2042 10.044C62.6922 10.044 62.2842 10.204 61.9802 10.524C61.6922 10.844 61.5402 11.252 61.5242 11.748V14.94C61.5242 15.468 61.6762 15.9 61.9802 16.236C62.2842 16.572 62.6922 16.74 63.2042 16.74H64.1642C64.6762 16.74 65.0922 16.572 65.4122 16.236C65.7322 15.9 65.8922 15.468 65.8922 14.94V11.82C65.8922 11.292 65.7322 10.868 65.4122 10.548C65.0922 10.212 64.6762 10.044 64.1642 10.044H63.2042ZM73.4361 19.5H70.6041V7.284H73.4361V19.5ZM73.4361 5.964H70.6041V3.156H73.4361V5.964ZM75.6214 3.156H78.4534V19.5H75.6214V3.156ZM83.5611 19.5H80.7291V7.284H83.5611V19.5ZM83.5611 5.964H80.7291V3.156H83.5611V5.964ZM89.8504 19.5C89.1464 19.5 88.5144 19.396 87.9544 19.188C87.4104 18.98 86.9384 18.684 86.5384 18.3C86.1544 17.9 85.8584 17.428 85.6504 16.884C85.4424 16.324 85.3384 15.708 85.3384 15.036V11.748C85.3384 11.06 85.4424 10.444 85.6504 9.9C85.8584 9.356 86.1544 8.892 86.5384 8.508C86.9384 8.124 87.4104 7.828 87.9544 7.62C88.5144 7.396 89.1464 7.284 89.8504 7.284H90.8104C91.4824 7.284 92.0904 7.38 92.6344 7.572V3.156H95.3224V19.5H89.8504ZM92.6344 16.74V11.82C92.6344 11.292 92.4584 10.868 92.1064 10.548C91.7544 10.212 91.3224 10.044 90.8104 10.044H89.8504C89.3384 10.044 88.8984 10.212 88.5304 10.548C88.1784 10.868 88.0024 11.292 88.0024 11.82V14.94C88.0024 15.468 88.1784 15.9 88.5304 16.236C88.8984 16.572 89.3384 16.74 89.8504 16.74H92.6344ZM96.7525 11.148C96.8005 10.636 96.9125 10.148 97.0885 9.684C97.2805 9.22 97.5525 8.812 97.9045 8.46C98.2565 8.108 98.6965 7.828 99.2245 7.62C99.7525 7.396 100.36 7.284 101.048 7.284H102.488C103.208 7.284 103.832 7.404 104.36 7.644C104.904 7.884 105.352 8.204 105.704 8.604C106.056 8.988 106.32 9.436 106.496 9.948C106.672 10.444 106.76 10.948 106.76 11.46V19.5H99.9445C99.4165 19.5 98.9445 19.404 98.5285 19.212C98.1125 19.004 97.7605 18.74 97.4725 18.42C97.2005 18.084 96.9925 17.692 96.8485 17.244C96.7205 16.796 96.6565 16.316 96.6565 15.804C96.6565 15.308 96.7285 14.844 96.8725 14.412C97.0165 13.98 97.2245 13.612 97.4965 13.308C97.7685 12.988 98.1045 12.74 98.5045 12.564C98.9205 12.372 99.3845 12.276 99.8965 12.276H104V12.036C104 11.748 103.976 11.484 103.928 11.244C103.88 10.988 103.792 10.772 103.664 10.596C103.536 10.42 103.344 10.284 103.088 10.188C102.832 10.076 102.488 10.02 102.056 10.02H101.456C100.816 10.02 100.36 10.116 100.088 10.308C99.8165 10.484 99.6325 10.764 99.5365 11.148H96.7525ZM99.2245 15.804C99.2245 16.22 99.3045 16.532 99.4645 16.74C99.6405 16.932 99.8325 17.028 100.04 17.028H104V14.58H100.04C99.8325 14.58 99.6405 14.684 99.4645 14.892C99.3045 15.1 99.2245 15.404 99.2245 15.804ZM112.889 19.5C112.185 19.5 111.553 19.396 110.993 19.188C110.449 18.98 109.977 18.684 109.577 18.3C109.193 17.9 108.897 17.428 108.689 16.884C108.481 16.324 108.377 15.708 108.377 15.036V11.748C108.377 11.06 108.481 10.444 108.689 9.9C108.897 9.356 109.193 8.892 109.577 8.508C109.977 8.124 110.449 7.828 110.993 7.62C111.553 7.396 112.185 7.284 112.889 7.284H113.849C114.521 7.284 115.129 7.38 115.673 7.572V3.156H118.361V19.5H112.889ZM115.673 16.74V11.82C115.673 11.292 115.497 10.868 115.145 10.548C114.793 10.212 114.361 10.044 113.849 10.044H112.889C112.377 10.044 111.937 10.212 111.569 10.548C111.217 10.868 111.041 11.292 111.041 11.82V14.94C111.041 15.468 111.217 15.9 111.569 16.236C111.937 16.572 112.377 16.74 112.889 16.74H115.673ZM119.84 11.628C119.84 11.036 119.952 10.484 120.176 9.972C120.4 9.444 120.696 8.98 121.064 8.58C121.432 8.18 121.856 7.868 122.336 7.644C122.816 7.404 123.296 7.284 123.776 7.284H126.512C127.136 7.284 127.688 7.42 128.168 7.692C128.664 7.948 129.072 8.284 129.392 8.7C129.728 9.1 129.984 9.556 130.16 10.068C130.352 10.564 130.448 11.052 130.448 11.532V14.628H122.672V15.276C122.672 15.852 122.832 16.26 123.152 16.5C123.472 16.74 123.896 16.86 124.424 16.86H130.016V19.548H123.8C123.256 19.548 122.744 19.444 122.264 19.236C121.784 19.012 121.36 18.716 120.992 18.348C120.64 17.98 120.36 17.54 120.152 17.028C119.944 16.516 119.84 15.956 119.84 15.348V11.628ZM122.696 12.348H127.664V12.228C127.664 11.604 127.504 11.092 127.184 10.692C126.864 10.276 126.432 10.068 125.888 10.068H124.4C124.144 10.068 123.912 10.132 123.704 10.26C123.496 10.372 123.32 10.524 123.176 10.716C123.032 10.908 122.912 11.14 122.816 11.412C122.736 11.668 122.696 11.94 122.696 12.228V12.348ZM140.668 9.66H135.892C135.684 9.66 135.508 9.7 135.364 9.78C135.236 9.844 135.124 9.94 135.028 10.068C134.932 10.196 134.86 10.34 134.812 10.5C134.764 10.644 134.74 10.788 134.74 10.932C134.74 11.236 134.836 11.516 135.028 11.772C135.236 12.012 135.484 12.132 135.772 12.132H138.46C139.02 12.132 139.508 12.228 139.924 12.42C140.356 12.612 140.708 12.876 140.98 13.212C141.268 13.548 141.476 13.948 141.604 14.412C141.748 14.876 141.82 15.372 141.82 15.9V15.972C141.82 16.5 141.732 16.98 141.556 17.412C141.396 17.844 141.164 18.212 140.86 18.516C140.556 18.82 140.196 19.06 139.78 19.236C139.364 19.412 138.924 19.5 138.46 19.5H132.652V17.124H137.644C138.012 17.124 138.348 17.02 138.652 16.812C138.972 16.604 139.14 16.292 139.156 15.876V15.9C139.156 15.66 139.108 15.46 139.012 15.3C138.932 15.14 138.82 15.012 138.676 14.916C138.532 14.804 138.372 14.724 138.196 14.676C138.02 14.628 137.836 14.604 137.644 14.604H135.484C134.78 14.604 134.196 14.492 133.732 14.268C133.284 14.044 132.924 13.756 132.652 13.404C132.396 13.052 132.22 12.652 132.124 12.204C132.028 11.756 131.98 11.3 131.98 10.836C131.98 10.356 132.052 9.892 132.196 9.444C132.34 8.996 132.548 8.604 132.82 8.268C133.108 7.916 133.46 7.644 133.876 7.452C134.292 7.26 134.764 7.164 135.292 7.164H140.668V9.66Z" fill="#CF0C0C"/>
<path d="M9 17.25V18.257C9.00005 18.6511 8.92244 19.0414 8.77162 19.4055C8.6208 19.7696 8.39971 20.1004 8.121 20.379L7.5 21H16.5L15.879 20.379C15.6003 20.1004 15.3792 19.7696 15.2284 19.4055C15.0776 19.0414 15 18.6511 15 18.257V17.25M21 5.25V15C21 15.5967 20.7629 16.169 20.341 16.591C19.919 17.0129 19.3467 17.25 18.75 17.25H5.25C4.65326 17.25 4.08097 17.0129 3.65901 16.591C3.23705 16.169 3 15.5967 3 15V5.25M21 5.25C21 4.65326 20.7629 4.08097 20.341 3.65901C19.919 3.23705 19.3467 3 18.75 3H5.25C4.65326 3 4.08097 3.23705 3.65901 3.65901C3.23705 4.08097 3 4.65326 3 5.25M21 5.25V12C21 12.5967 20.7629 13.169 20.341 13.591C19.919 14.0129 19.3467 14.25 18.75 14.25H5.25C4.65326 14.25 4.08097 14.0129 3.65901 13.591C3.23705 13.169 3 12.5967 3 12V5.25" stroke="#CF0C0C" stroke-width="2" stroke-linecap="round" stroke-linejoin="round"/>
</svg>
