<svg width="192" height="36" viewBox="0 0 192 36" fill="none" xmlns="http://www.w3.org/2000/svg">
<path d="M13.5 5H7.5C6.672 5 6 5.672 6 6.5V29.5C6 30.328 6.672 31 7.5 31H24.5C25.328 31 26 30.328 26 29.5V17.5M13.5 5H14C17.1826 5 20.2348 6.26428 22.4853 8.51472C24.7357 10.7652 26 13.8174 26 17V17.5M13.5 5C14.6935 5 15.8381 5.47411 16.682 6.31802C17.5259 7.16193 18 8.30653 18 9.5V11.5C18 12.328 18.672 13 19.5 13H21.5C22.6935 13 23.8381 13.4741 24.682 14.318C25.5259 15.1619 26 16.3065 26 17.5M12 22L15 25L20 18" stroke="#CF0C0C" stroke-width="2" stroke-linecap="round" stroke-linejoin="round"/>
<path d="M66.1145 23.148C66.2665 23.148 66.3985 23.208 66.5105 23.328L67.6265 24.54C66.9225 25.388 66.0585 26.044 65.0345 26.508C64.0105 26.964 62.7865 27.192 61.3625 27.192C60.0985 27.192 58.9545 26.976 57.9305 26.544C56.9145 26.104 56.0465 25.496 55.3265 24.72C54.6065 23.936 54.0505 23.004 53.6585 21.924C53.2745 20.844 53.0825 19.656 53.0825 18.36C53.0825 17.064 53.2865 15.876 53.6945 14.796C54.1105 13.708 54.6905 12.776 55.4345 12C56.1865 11.216 57.0825 10.608 58.1225 10.176C59.1705 9.744 60.3225 9.528 61.5785 9.528C62.8265 9.528 63.9265 9.732 64.8785 10.14C65.8385 10.54 66.6705 11.076 67.3745 11.748L66.4505 13.056C66.3865 13.144 66.3105 13.22 66.2225 13.284C66.1345 13.348 66.0145 13.38 65.8625 13.38C65.7025 13.38 65.5185 13.308 65.3105 13.164C65.1105 13.012 64.8505 12.848 64.5305 12.672C64.2185 12.488 63.8225 12.324 63.3425 12.18C62.8705 12.028 62.2785 11.952 61.5665 11.952C60.7425 11.952 59.9865 12.096 59.2985 12.384C58.6105 12.672 58.0185 13.092 57.5225 13.644C57.0265 14.196 56.6385 14.868 56.3585 15.66C56.0865 16.452 55.9505 17.352 55.9505 18.36C55.9505 19.376 56.0945 20.284 56.3825 21.084C56.6705 21.876 57.0665 22.548 57.5705 23.1C58.0745 23.644 58.6665 24.06 59.3465 24.348C60.0265 24.636 60.7585 24.78 61.5425 24.78C62.0225 24.78 62.4505 24.756 62.8265 24.708C63.2105 24.652 63.5625 24.568 63.8825 24.456C64.2025 24.336 64.5025 24.188 64.7825 24.012C65.0705 23.836 65.3545 23.62 65.6345 23.364C65.7945 23.22 65.9545 23.148 66.1145 23.148ZM77.3422 19.5C77.3422 19.068 77.2782 18.668 77.1502 18.3C77.0302 17.924 76.8502 17.6 76.6102 17.328C76.3702 17.048 76.0702 16.832 75.7102 16.68C75.3582 16.52 74.9502 16.44 74.4862 16.44C73.5502 16.44 72.8142 16.708 72.2782 17.244C71.7422 17.78 71.4022 18.532 71.2582 19.5H77.3422ZM71.1862 21.084C71.2182 21.78 71.3262 22.384 71.5102 22.896C71.6942 23.4 71.9382 23.82 72.2422 24.156C72.5542 24.492 72.9222 24.744 73.3462 24.912C73.7782 25.072 74.2582 25.152 74.7862 25.152C75.2902 25.152 75.7262 25.096 76.0942 24.984C76.4622 24.864 76.7822 24.736 77.0542 24.6C77.3262 24.456 77.5582 24.328 77.7502 24.216C77.9422 24.096 78.1182 24.036 78.2782 24.036C78.4862 24.036 78.6462 24.116 78.7582 24.276L79.4902 25.224C79.1862 25.584 78.8422 25.888 78.4582 26.136C78.0742 26.384 77.6662 26.588 77.2342 26.748C76.8022 26.9 76.3582 27.008 75.9022 27.072C75.4462 27.144 75.0022 27.18 74.5702 27.18C73.7222 27.18 72.9342 27.04 72.2062 26.76C71.4862 26.472 70.8582 26.052 70.3222 25.5C69.7942 24.948 69.3782 24.264 69.0742 23.448C68.7782 22.632 68.6302 21.692 68.6302 20.628C68.6302 19.78 68.7622 18.988 69.0262 18.252C69.2982 17.516 69.6822 16.876 70.1782 16.332C70.6822 15.788 71.2902 15.36 72.0022 15.048C72.7222 14.728 73.5342 14.568 74.4382 14.568C75.1902 14.568 75.8862 14.692 76.5262 14.94C77.1662 15.18 77.7182 15.536 78.1822 16.008C78.6462 16.48 79.0062 17.06 79.2622 17.748C79.5262 18.428 79.6582 19.204 79.6582 20.076C79.6582 20.476 79.6142 20.744 79.5262 20.88C79.4382 21.016 79.2782 21.084 79.0462 21.084H71.1862ZM84.5002 17.028C84.8842 16.252 85.3482 15.644 85.8922 15.204C86.4362 14.756 87.0882 14.532 87.8482 14.532C88.1122 14.532 88.3602 14.564 88.5922 14.628C88.8242 14.684 89.0322 14.772 89.2162 14.892L89.0362 16.836C89.0042 16.972 88.9522 17.068 88.8802 17.124C88.8162 17.172 88.7282 17.196 88.6162 17.196C88.4962 17.196 88.3242 17.176 88.1002 17.136C87.8762 17.088 87.6402 17.064 87.3922 17.064C87.0322 17.064 86.7122 17.116 86.4322 17.22C86.1602 17.324 85.9122 17.476 85.6882 17.676C85.4722 17.876 85.2802 18.12 85.1122 18.408C84.9442 18.696 84.7882 19.024 84.6442 19.392V27H82.0642V14.76H83.5642C83.8362 14.76 84.0242 14.812 84.1282 14.916C84.2322 15.012 84.3042 15.184 84.3442 15.432L84.5002 17.028ZM102.804 27H100.224V16.788H94.2596V23.736C94.2596 24.176 94.3676 24.512 94.5836 24.744C94.7996 24.976 95.0876 25.092 95.4476 25.092C95.6476 25.092 95.8196 25.068 95.9636 25.02C96.1076 24.964 96.2316 24.908 96.3356 24.852C96.4396 24.788 96.5276 24.732 96.5996 24.684C96.6796 24.628 96.7556 24.6 96.8276 24.6C96.9716 24.6 97.0876 24.68 97.1756 24.84L97.9436 26.1C97.5436 26.452 97.0716 26.724 96.5276 26.916C95.9836 27.1 95.4236 27.192 94.8476 27.192C93.8316 27.192 93.0476 26.908 92.4956 26.34C91.9516 25.764 91.6796 24.956 91.6796 23.916V16.788H90.3356C90.1916 16.788 90.0676 16.744 89.9636 16.656C89.8596 16.56 89.8076 16.42 89.8076 16.236V15.192L91.7876 14.904L92.3516 11.364C92.3916 11.228 92.4596 11.12 92.5556 11.04C92.6516 10.952 92.7796 10.908 92.9396 10.908H94.2596V14.928H102.804V27ZM103.332 11.004C103.332 11.236 103.284 11.456 103.188 11.664C103.1 11.864 102.976 12.044 102.816 12.204C102.656 12.356 102.468 12.48 102.252 12.576C102.044 12.664 101.824 12.708 101.592 12.708C101.36 12.708 101.14 12.664 100.932 12.576C100.732 12.48 100.552 12.356 100.392 12.204C100.24 12.044 100.116 11.864 100.02 11.664C99.9316 11.456 99.8876 11.236 99.8876 11.004C99.8876 10.764 99.9316 10.54 100.02 10.332C100.116 10.116 100.24 9.932 100.392 9.78C100.552 9.62 100.732 9.496 100.932 9.408C101.14 9.312 101.36 9.264 101.592 9.264C101.824 9.264 102.044 9.312 102.252 9.408C102.468 9.496 102.656 9.62 102.816 9.78C102.976 9.932 103.1 10.116 103.188 10.332C103.284 10.54 103.332 10.764 103.332 11.004ZM106.904 27V16.812L105.704 16.644C105.504 16.604 105.34 16.532 105.212 16.428C105.092 16.324 105.032 16.176 105.032 15.984V14.928H106.904V14.412C106.904 13.66 107.024 12.968 107.264 12.336C107.504 11.704 107.868 11.156 108.356 10.692C108.844 10.228 109.452 9.868 110.18 9.612C110.916 9.348 111.776 9.216 112.76 9.216C113.08 9.216 113.408 9.236 113.744 9.276C114.088 9.316 114.38 9.376 114.62 9.456L114.536 10.8C114.52 10.968 114.42 11.064 114.236 11.088C114.052 11.104 113.808 11.112 113.504 11.112C112.76 11.112 112.128 11.184 111.608 11.328C111.088 11.464 110.664 11.676 110.336 11.964C110.008 12.244 109.768 12.596 109.616 13.02C109.472 13.436 109.4 13.924 109.4 14.484V14.928H116.9V27H114.32V16.788H109.484V27H106.904ZM128.826 17.16C128.746 17.264 128.67 17.344 128.598 17.4C128.526 17.456 128.422 17.484 128.286 17.484C128.15 17.484 128.006 17.436 127.854 17.34C127.71 17.244 127.534 17.14 127.326 17.028C127.126 16.908 126.882 16.8 126.594 16.704C126.306 16.608 125.946 16.56 125.514 16.56C124.954 16.56 124.462 16.66 124.038 16.86C123.622 17.06 123.27 17.348 122.982 17.724C122.702 18.092 122.49 18.544 122.346 19.08C122.21 19.608 122.142 20.204 122.142 20.868C122.142 21.556 122.218 22.168 122.37 22.704C122.522 23.24 122.738 23.692 123.018 24.06C123.306 24.428 123.65 24.708 124.05 24.9C124.458 25.092 124.914 25.188 125.418 25.188C125.914 25.188 126.318 25.128 126.63 25.008C126.942 24.888 127.202 24.756 127.41 24.612C127.618 24.468 127.794 24.336 127.938 24.216C128.09 24.096 128.25 24.036 128.418 24.036C128.626 24.036 128.786 24.116 128.898 24.276L129.63 25.224C129.334 25.584 129.006 25.888 128.646 26.136C128.286 26.384 127.906 26.588 127.506 26.748C127.106 26.9 126.69 27.008 126.258 27.072C125.826 27.144 125.39 27.18 124.95 27.18C124.19 27.18 123.478 27.04 122.814 26.76C122.158 26.472 121.582 26.06 121.086 25.524C120.598 24.98 120.21 24.32 119.922 23.544C119.642 22.76 119.502 21.868 119.502 20.868C119.502 19.964 119.63 19.128 119.886 18.36C120.142 17.584 120.514 16.916 121.002 16.356C121.498 15.796 122.11 15.36 122.838 15.048C123.566 14.728 124.406 14.568 125.358 14.568C126.246 14.568 127.026 14.712 127.698 15C128.378 15.288 128.982 15.696 129.51 16.224L128.826 17.16ZM138.245 21.648C137.325 21.68 136.549 21.756 135.917 21.876C135.285 21.988 134.773 22.136 134.381 22.32C133.989 22.496 133.705 22.708 133.529 22.956C133.361 23.204 133.277 23.476 133.277 23.772C133.277 24.06 133.321 24.308 133.409 24.516C133.505 24.716 133.633 24.884 133.793 25.02C133.961 25.148 134.153 25.244 134.369 25.308C134.593 25.364 134.837 25.392 135.101 25.392C135.773 25.392 136.349 25.268 136.829 25.02C137.317 24.764 137.789 24.396 138.245 23.916V21.648ZM131.405 16.464C132.789 15.176 134.437 14.532 136.349 14.532C137.053 14.532 137.677 14.648 138.221 14.88C138.773 15.104 139.233 15.424 139.601 15.84C139.977 16.256 140.261 16.752 140.453 17.328C140.653 17.896 140.753 18.528 140.753 19.224V27H139.601C139.353 27 139.165 26.964 139.037 26.892C138.909 26.812 138.801 26.656 138.713 26.424L138.461 25.428C138.149 25.708 137.841 25.96 137.537 26.184C137.233 26.4 136.917 26.584 136.589 26.736C136.269 26.888 135.921 27 135.545 27.072C135.177 27.152 134.769 27.192 134.321 27.192C133.825 27.192 133.361 27.124 132.929 26.988C132.505 26.852 132.137 26.648 131.825 26.376C131.513 26.096 131.265 25.752 131.081 25.344C130.905 24.936 130.817 24.456 130.817 23.904C130.817 23.432 130.941 22.972 131.189 22.524C131.445 22.076 131.861 21.676 132.437 21.324C133.021 20.964 133.785 20.668 134.729 20.436C135.681 20.204 136.853 20.072 138.245 20.04V19.224C138.245 18.344 138.057 17.688 137.681 17.256C137.305 16.824 136.753 16.608 136.025 16.608C135.529 16.608 135.113 16.672 134.777 16.8C134.441 16.92 134.149 17.052 133.901 17.196C133.653 17.34 133.433 17.476 133.241 17.604C133.049 17.724 132.845 17.784 132.629 17.784C132.453 17.784 132.301 17.74 132.173 17.652C132.053 17.556 131.953 17.44 131.873 17.304L131.405 16.464ZM151.587 17.772C151.227 17.308 150.831 16.984 150.399 16.8C149.967 16.616 149.499 16.524 148.995 16.524C147.987 16.524 147.199 16.896 146.631 17.64C146.063 18.376 145.779 19.468 145.779 20.916C145.779 21.668 145.843 22.312 145.971 22.848C146.099 23.376 146.283 23.808 146.523 24.144C146.763 24.48 147.055 24.724 147.399 24.876C147.743 25.028 148.131 25.104 148.563 25.104C149.219 25.104 149.783 24.964 150.255 24.684C150.735 24.396 151.179 23.992 151.587 23.472V17.772ZM154.167 9.24V27H152.607C152.263 27 152.043 26.836 151.947 26.508L151.719 25.176C151.207 25.776 150.623 26.26 149.967 26.628C149.319 26.996 148.563 27.18 147.699 27.18C147.011 27.18 146.387 27.044 145.827 26.772C145.267 26.492 144.787 26.088 144.387 25.56C143.987 25.032 143.675 24.38 143.451 23.604C143.235 22.82 143.127 21.924 143.127 20.916C143.127 20.004 143.247 19.16 143.487 18.384C143.735 17.608 144.087 16.936 144.543 16.368C144.999 15.792 145.551 15.344 146.199 15.024C146.855 14.696 147.587 14.532 148.395 14.532C149.115 14.532 149.727 14.648 150.231 14.88C150.735 15.104 151.187 15.42 151.587 15.828V9.24H154.167ZM162.614 14.568C163.518 14.568 164.334 14.716 165.062 15.012C165.798 15.308 166.422 15.728 166.934 16.272C167.454 16.816 167.854 17.476 168.134 18.252C168.414 19.028 168.554 19.9 168.554 20.868C168.554 21.836 168.414 22.708 168.134 23.484C167.854 24.26 167.454 24.924 166.934 25.476C166.422 26.02 165.798 26.44 165.062 26.736C164.334 27.032 163.518 27.18 162.614 27.18C161.702 27.18 160.878 27.032 160.142 26.736C159.414 26.44 158.79 26.02 158.27 25.476C157.75 24.924 157.35 24.26 157.07 23.484C156.79 22.708 156.65 21.836 156.65 20.868C156.65 19.9 156.79 19.028 157.07 18.252C157.35 17.476 157.75 16.816 158.27 16.272C158.79 15.728 159.414 15.308 160.142 15.012C160.878 14.716 161.702 14.568 162.614 14.568ZM162.614 25.164C163.718 25.164 164.538 24.796 165.074 24.06C165.618 23.316 165.89 22.256 165.89 20.88C165.89 19.504 165.618 18.444 165.074 17.7C164.538 16.948 163.718 16.572 162.614 16.572C161.494 16.572 160.662 16.948 160.118 17.7C159.574 18.444 159.302 19.504 159.302 20.88C159.302 22.256 159.574 23.316 160.118 24.06C160.662 24.796 161.494 25.164 162.614 25.164ZM178.341 16.98C178.277 17.092 178.205 17.172 178.125 17.22C178.045 17.268 177.945 17.292 177.825 17.292C177.689 17.292 177.541 17.252 177.381 17.172C177.221 17.084 177.033 16.988 176.817 16.884C176.601 16.78 176.345 16.688 176.049 16.608C175.761 16.52 175.421 16.476 175.029 16.476C174.709 16.476 174.417 16.516 174.153 16.596C173.897 16.668 173.677 16.776 173.493 16.92C173.317 17.056 173.181 17.22 173.085 17.412C172.989 17.596 172.941 17.796 172.941 18.012C172.941 18.3 173.029 18.54 173.205 18.732C173.381 18.924 173.613 19.092 173.901 19.236C174.189 19.372 174.517 19.496 174.885 19.608C175.253 19.72 175.629 19.84 176.013 19.968C176.397 20.096 176.773 20.244 177.141 20.412C177.509 20.58 177.837 20.788 178.125 21.036C178.413 21.276 178.645 21.572 178.821 21.924C178.997 22.268 179.085 22.688 179.085 23.184C179.085 23.76 178.981 24.292 178.773 24.78C178.565 25.268 178.261 25.692 177.861 26.052C177.461 26.412 176.961 26.692 176.361 26.892C175.769 27.092 175.089 27.192 174.321 27.192C173.897 27.192 173.485 27.152 173.085 27.072C172.693 27 172.317 26.9 171.957 26.772C171.605 26.636 171.273 26.476 170.961 26.292C170.657 26.108 170.385 25.908 170.145 25.692L170.745 24.708C170.817 24.588 170.905 24.496 171.009 24.432C171.121 24.36 171.257 24.324 171.417 24.324C171.585 24.324 171.749 24.38 171.909 24.492C172.077 24.596 172.269 24.712 172.485 24.84C172.709 24.968 172.977 25.088 173.289 25.2C173.601 25.304 173.989 25.356 174.453 25.356C174.837 25.356 175.169 25.312 175.449 25.224C175.729 25.128 175.961 25 176.145 24.84C176.329 24.68 176.465 24.5 176.553 24.3C176.641 24.092 176.685 23.872 176.685 23.64C176.685 23.328 176.597 23.072 176.421 22.872C176.245 22.672 176.009 22.5 175.713 22.356C175.425 22.212 175.093 22.084 174.717 21.972C174.349 21.86 173.973 21.74 173.589 21.612C173.205 21.484 172.825 21.336 172.449 21.168C172.081 21 171.749 20.788 171.453 20.532C171.165 20.268 170.933 19.952 170.757 19.584C170.581 19.208 170.493 18.752 170.493 18.216C170.493 17.728 170.589 17.264 170.781 16.824C170.981 16.384 171.269 15.996 171.645 15.66C172.029 15.324 172.497 15.06 173.049 14.868C173.609 14.668 174.253 14.568 174.981 14.568C175.805 14.568 176.553 14.7 177.225 14.964C177.897 15.228 178.461 15.588 178.917 16.044L178.341 16.98Z" fill="#F6F6F6"/>
</svg>
