<svg width="120" height="36" viewBox="0 0 120 36" fill="none" xmlns="http://www.w3.org/2000/svg">
<g clip-path="url(#clip0_12_126)">
<path d="M12.5 27.3333C6.76667 29.1999 6.76667 23.9999 4.5 23.3333M20.5 29.9999V25.3333C20.5 23.9999 20.6333 23.4666 19.8333 22.6666C23.5667 22.2666 27.1667 20.7999 27.1667 14.6666C27.165 13.0732 26.5434 11.543 25.4333 10.3999C25.954 9.01589 25.906 7.4821 25.3 6.13327C25.3 6.13327 23.8333 5.73327 20.6333 7.8666C17.923 7.16072 15.077 7.16072 12.3667 7.8666C9.16667 5.73327 7.7 6.13327 7.7 6.13327C7.09397 7.4821 7.04604 9.01589 7.56667 10.3999C6.4566 11.543 5.83496 13.0732 5.83333 14.6666C5.83333 20.7999 9.43333 22.2666 13.1667 22.6666C12.3667 23.4666 12.3667 24.2666 12.5 25.3333V29.9999" stroke="#CF0C0C" stroke-width="2" stroke-linecap="round" stroke-linejoin="round"/>
</g>
<path d="M57.5633 18.492V25.332C55.8433 26.572 53.8433 27.192 51.5633 27.192C50.1633 27.192 48.8953 26.976 47.7593 26.544C46.6313 26.104 45.6673 25.496 44.8673 24.72C44.0673 23.936 43.4513 23.004 43.0193 21.924C42.5873 20.844 42.3713 19.656 42.3713 18.36C42.3713 17.056 42.5793 15.864 42.9953 14.784C43.4113 13.696 44.0073 12.764 44.7833 11.988C45.5593 11.204 46.4953 10.6 47.5913 10.176C48.6873 9.744 49.9193 9.528 51.2873 9.528C51.9833 9.528 52.6273 9.584 53.2193 9.696C53.8193 9.8 54.3753 9.948 54.8873 10.14C55.3993 10.332 55.8713 10.564 56.3033 10.836C56.7353 11.108 57.1313 11.412 57.4913 11.748L56.6873 13.032C56.5593 13.232 56.3953 13.356 56.1953 13.404C55.9953 13.452 55.7793 13.404 55.5473 13.26C55.3153 13.124 55.0673 12.98 54.8033 12.828C54.5473 12.676 54.2513 12.536 53.9153 12.408C53.5793 12.272 53.1913 12.164 52.7513 12.084C52.3113 11.996 51.7913 11.952 51.1913 11.952C50.2793 11.952 49.4553 12.104 48.7193 12.408C47.9913 12.704 47.3673 13.132 46.8473 13.692C46.3273 14.244 45.9273 14.916 45.6473 15.708C45.3673 16.5 45.2273 17.384 45.2273 18.36C45.2273 19.392 45.3753 20.316 45.6713 21.132C45.9673 21.94 46.3873 22.628 46.9313 23.196C47.4753 23.756 48.1313 24.184 48.8993 24.48C49.6753 24.776 50.5393 24.924 51.4913 24.924C52.2033 24.924 52.8353 24.848 53.3873 24.696C53.9473 24.544 54.4953 24.332 55.0313 24.06V20.628H52.6193C52.4353 20.628 52.2913 20.58 52.1873 20.484C52.0833 20.38 52.0313 20.248 52.0313 20.088V18.492H57.5633ZM63.0139 14.76V27H60.4339V14.76H63.0139ZM63.4459 11.064C63.4459 11.296 63.3979 11.516 63.3019 11.724C63.2139 11.932 63.0899 12.116 62.9299 12.276C62.7699 12.428 62.5819 12.552 62.3659 12.648C62.1579 12.736 61.9339 12.78 61.6939 12.78C61.4619 12.78 61.2419 12.736 61.0339 12.648C60.8339 12.552 60.6579 12.428 60.5059 12.276C60.3539 12.116 60.2299 11.932 60.1339 11.724C60.0459 11.516 60.0019 11.296 60.0019 11.064C60.0019 10.824 60.0459 10.6 60.1339 10.392C60.2299 10.184 60.3539 10.004 60.5059 9.852C60.6579 9.692 60.8339 9.568 61.0339 9.48C61.2419 9.384 61.4619 9.336 61.6939 9.336C61.9339 9.336 62.1579 9.384 62.3659 9.48C62.5819 9.568 62.7699 9.692 62.9299 9.852C63.0899 10.004 63.2139 10.184 63.3019 10.392C63.3979 10.6 63.4459 10.824 63.4459 11.064ZM70.1796 27.192C69.1636 27.192 68.3796 26.908 67.8276 26.34C67.2836 25.764 67.0116 24.956 67.0116 23.916V16.788H65.6676C65.5236 16.788 65.3996 16.744 65.2956 16.656C65.1916 16.56 65.1396 16.42 65.1396 16.236V15.192L67.1196 14.904L67.6836 11.364C67.7236 11.228 67.7916 11.12 67.8876 11.04C67.9836 10.952 68.1116 10.908 68.2716 10.908H69.5916V14.928H72.9876V16.788H69.5916V23.736C69.5916 24.176 69.6996 24.512 69.9156 24.744C70.1316 24.976 70.4196 25.092 70.7796 25.092C70.9796 25.092 71.1516 25.068 71.2956 25.02C71.4396 24.964 71.5636 24.908 71.6676 24.852C71.7716 24.788 71.8596 24.732 71.9316 24.684C72.0116 24.628 72.0876 24.6 72.1596 24.6C72.3036 24.6 72.4196 24.68 72.5076 24.84L73.2756 26.1C72.8756 26.452 72.4036 26.724 71.8596 26.916C71.3156 27.1 70.7556 27.192 70.1796 27.192ZM89.8052 9.72V27H86.9972V19.308H78.3212V27H75.5012V9.72H78.3212V17.28H86.9972V9.72H89.8052ZM103.529 14.76V27H101.969C101.625 27 101.405 26.836 101.309 26.508L101.117 25.368C100.861 25.64 100.589 25.888 100.301 26.112C100.021 26.336 99.7207 26.528 99.4007 26.688C99.0807 26.848 98.7367 26.972 98.3687 27.06C98.0087 27.148 97.6207 27.192 97.2047 27.192C96.5327 27.192 95.9407 27.08 95.4287 26.856C94.9167 26.632 94.4847 26.316 94.1327 25.908C93.7887 25.5 93.5287 25.012 93.3527 24.444C93.1767 23.868 93.0887 23.236 93.0887 22.548V14.76H95.6687V22.548C95.6687 23.372 95.8567 24.012 96.2327 24.468C96.6167 24.924 97.1967 25.152 97.9727 25.152C98.5407 25.152 99.0687 25.024 99.5567 24.768C100.053 24.504 100.517 24.144 100.949 23.688V14.76H103.529ZM109.242 23.928C109.602 24.392 109.994 24.72 110.418 24.912C110.85 25.096 111.318 25.188 111.822 25.188C112.838 25.188 113.63 24.82 114.198 24.084C114.766 23.348 115.05 22.208 115.05 20.664C115.05 19.256 114.802 18.228 114.306 17.58C113.818 16.932 113.118 16.608 112.206 16.608C111.574 16.608 111.022 16.752 110.55 17.04C110.086 17.32 109.65 17.724 109.242 18.252V23.928ZM109.242 16.38C109.746 15.828 110.31 15.388 110.934 15.06C111.558 14.732 112.27 14.568 113.07 14.568C113.782 14.568 114.422 14.708 114.99 14.988C115.566 15.26 116.054 15.656 116.454 16.176C116.854 16.696 117.162 17.328 117.378 18.072C117.594 18.808 117.702 19.64 117.702 20.568C117.702 21.56 117.578 22.464 117.33 23.28C117.09 24.088 116.742 24.784 116.286 25.368C115.83 25.944 115.278 26.392 114.63 26.712C113.982 27.024 113.258 27.18 112.458 27.18C112.066 27.18 111.71 27.14 111.39 27.06C111.07 26.988 110.774 26.88 110.502 26.736C110.23 26.592 109.978 26.42 109.746 26.22C109.522 26.02 109.306 25.792 109.098 25.536L108.99 26.484C108.95 26.668 108.878 26.8 108.774 26.88C108.67 26.96 108.526 27 108.342 27H106.662V9.24H109.242V16.38Z" fill="#F6F6F6"/>
<defs>
<clipPath id="clip0_12_126">
<rect width="32" height="32" fill="white" transform="translate(0.5 2)"/>
</clipPath>
</defs>
</svg>
