<svg width="144" height="24" viewBox="0 0 144 24" fill="none" xmlns="http://www.w3.org/2000/svg">
<path d="M45.1064 19.5H42.0824V12.684H36.8264V19.5H33.7784V3.156H36.8264V9.948H42.0824V3.156H45.1064V19.5ZM46.9876 11.148C47.0356 10.636 47.1476 10.148 47.3236 9.684C47.5156 9.22 47.7876 8.812 48.1396 8.46C48.4916 8.108 48.9316 7.828 49.4596 7.62C49.9876 7.396 50.5956 7.284 51.2836 7.284H52.7236C53.4436 7.284 54.0676 7.404 54.5956 7.644C55.1396 7.884 55.5876 8.204 55.9396 8.604C56.2916 8.988 56.5556 9.436 56.7316 9.948C56.9076 10.444 56.9956 10.948 56.9956 11.46V19.5H50.1796C49.6516 19.5 49.1796 19.404 48.7636 19.212C48.3476 19.004 47.9956 18.74 47.7076 18.42C47.4356 18.084 47.2276 17.692 47.0836 17.244C46.9556 16.796 46.8916 16.316 46.8916 15.804C46.8916 15.308 46.9636 14.844 47.1076 14.412C47.2516 13.98 47.4596 13.612 47.7316 13.308C48.0036 12.988 48.3396 12.74 48.7396 12.564C49.1556 12.372 49.6196 12.276 50.1316 12.276H54.2356V12.036C54.2356 11.748 54.2116 11.484 54.1636 11.244C54.1156 10.988 54.0276 10.772 53.8996 10.596C53.7716 10.42 53.5796 10.284 53.3236 10.188C53.0676 10.076 52.7236 10.02 52.2916 10.02H51.6916C51.0516 10.02 50.5956 10.116 50.3236 10.308C50.0516 10.484 49.8676 10.764 49.7716 11.148H46.9876ZM49.4596 15.804C49.4596 16.22 49.5396 16.532 49.6996 16.74C49.8756 16.932 50.0676 17.028 50.2756 17.028H54.2356V14.58H50.2756C50.0676 14.58 49.8756 14.684 49.6996 14.892C49.5396 15.1 49.4596 15.404 49.4596 15.804ZM64.1806 7.284C64.8846 7.284 65.5086 7.396 66.0526 7.62C66.6126 7.828 67.0846 8.124 67.4686 8.508C67.8686 8.892 68.1726 9.356 68.3806 9.9C68.5886 10.444 68.6926 11.06 68.6926 11.748V15.036C68.6926 15.708 68.5886 16.324 68.3806 16.884C68.1726 17.428 67.8686 17.9 67.4686 18.3C67.0846 18.684 66.6126 18.98 66.0526 19.188C65.5086 19.396 64.8846 19.5 64.1806 19.5H63.2206C62.5166 19.5 61.8846 19.396 61.3246 19.188C60.7806 18.98 60.3086 18.684 59.9086 18.3C59.5246 17.9 59.2286 17.428 59.0206 16.884C58.8126 16.324 58.7086 15.708 58.7086 15.036V11.748V11.556V3.156H61.5406V7.596C62.1326 7.388 62.7566 7.284 63.4126 7.284H64.1806ZM63.2206 10.044C62.7086 10.044 62.3006 10.204 61.9966 10.524C61.7086 10.844 61.5566 11.252 61.5406 11.748V14.94C61.5406 15.468 61.6926 15.9 61.9966 16.236C62.3006 16.572 62.7086 16.74 63.2206 16.74H64.1806C64.6926 16.74 65.1086 16.572 65.4286 16.236C65.7486 15.9 65.9086 15.468 65.9086 14.94V11.82C65.9086 11.292 65.7486 10.868 65.4286 10.548C65.1086 10.212 64.6926 10.044 64.1806 10.044H63.2206ZM73.4525 19.5H70.6205V7.284H73.4525V19.5ZM73.4525 5.964H70.6205V3.156H73.4525V5.964ZM75.6378 3.156H78.4698V19.5H75.6378V3.156ZM83.5775 19.5H80.7455V7.284H83.5775V19.5ZM83.5775 5.964H80.7455V3.156H83.5775V5.964ZM89.8668 19.5C89.1628 19.5 88.5308 19.396 87.9708 19.188C87.4268 18.98 86.9548 18.684 86.5548 18.3C86.1708 17.9 85.8748 17.428 85.6668 16.884C85.4588 16.324 85.3548 15.708 85.3548 15.036V11.748C85.3548 11.06 85.4588 10.444 85.6668 9.9C85.8748 9.356 86.1708 8.892 86.5548 8.508C86.9548 8.124 87.4268 7.828 87.9708 7.62C88.5308 7.396 89.1628 7.284 89.8668 7.284H90.8268C91.4988 7.284 92.1068 7.38 92.6508 7.572V3.156H95.3388V19.5H89.8668ZM92.6508 16.74V11.82C92.6508 11.292 92.4748 10.868 92.1228 10.548C91.7708 10.212 91.3388 10.044 90.8268 10.044H89.8668C89.3548 10.044 88.9148 10.212 88.5468 10.548C88.1948 10.868 88.0188 11.292 88.0188 11.82V14.94C88.0188 15.468 88.1948 15.9 88.5468 16.236C88.9148 16.572 89.3548 16.74 89.8668 16.74H92.6508ZM96.7688 11.148C96.8168 10.636 96.9288 10.148 97.1048 9.684C97.2968 9.22 97.5688 8.812 97.9208 8.46C98.2728 8.108 98.7128 7.828 99.2408 7.62C99.7688 7.396 100.377 7.284 101.065 7.284H102.505C103.225 7.284 103.849 7.404 104.377 7.644C104.921 7.884 105.369 8.204 105.721 8.604C106.073 8.988 106.337 9.436 106.513 9.948C106.689 10.444 106.777 10.948 106.777 11.46V19.5H99.9608C99.4328 19.5 98.9608 19.404 98.5448 19.212C98.1288 19.004 97.7768 18.74 97.4888 18.42C97.2168 18.084 97.0088 17.692 96.8648 17.244C96.7368 16.796 96.6728 16.316 96.6728 15.804C96.6728 15.308 96.7448 14.844 96.8888 14.412C97.0328 13.98 97.2408 13.612 97.5128 13.308C97.7848 12.988 98.1208 12.74 98.5208 12.564C98.9368 12.372 99.4008 12.276 99.9128 12.276H104.017V12.036C104.017 11.748 103.993 11.484 103.945 11.244C103.897 10.988 103.809 10.772 103.681 10.596C103.553 10.42 103.361 10.284 103.105 10.188C102.849 10.076 102.505 10.02 102.073 10.02H101.473C100.833 10.02 100.377 10.116 100.105 10.308C99.8328 10.484 99.6488 10.764 99.5528 11.148H96.7688ZM99.2408 15.804C99.2408 16.22 99.3208 16.532 99.4808 16.74C99.6568 16.932 99.8488 17.028 100.057 17.028H104.017V14.58H100.057C99.8488 14.58 99.6568 14.684 99.4808 14.892C99.3208 15.1 99.2408 15.404 99.2408 15.804ZM112.906 19.5C112.202 19.5 111.57 19.396 111.01 19.188C110.466 18.98 109.994 18.684 109.594 18.3C109.21 17.9 108.914 17.428 108.706 16.884C108.498 16.324 108.394 15.708 108.394 15.036V11.748C108.394 11.06 108.498 10.444 108.706 9.9C108.914 9.356 109.21 8.892 109.594 8.508C109.994 8.124 110.466 7.828 111.01 7.62C111.57 7.396 112.202 7.284 112.906 7.284H113.866C114.538 7.284 115.146 7.38 115.69 7.572V3.156H118.378V19.5H112.906ZM115.69 16.74V11.82C115.69 11.292 115.514 10.868 115.162 10.548C114.81 10.212 114.378 10.044 113.866 10.044H112.906C112.394 10.044 111.954 10.212 111.586 10.548C111.234 10.868 111.058 11.292 111.058 11.82V14.94C111.058 15.468 111.234 15.9 111.586 16.236C111.954 16.572 112.394 16.74 112.906 16.74H115.69ZM119.856 11.628C119.856 11.036 119.968 10.484 120.192 9.972C120.416 9.444 120.712 8.98 121.08 8.58C121.448 8.18 121.872 7.868 122.352 7.644C122.832 7.404 123.312 7.284 123.792 7.284H126.528C127.152 7.284 127.704 7.42 128.184 7.692C128.68 7.948 129.088 8.284 129.408 8.7C129.744 9.1 130 9.556 130.176 10.068C130.368 10.564 130.464 11.052 130.464 11.532V14.628H122.688V15.276C122.688 15.852 122.848 16.26 123.168 16.5C123.488 16.74 123.912 16.86 124.44 16.86H130.032V19.548H123.816C123.272 19.548 122.76 19.444 122.28 19.236C121.8 19.012 121.376 18.716 121.008 18.348C120.656 17.98 120.376 17.54 120.168 17.028C119.96 16.516 119.856 15.956 119.856 15.348V11.628ZM122.712 12.348H127.68V12.228C127.68 11.604 127.52 11.092 127.2 10.692C126.88 10.276 126.448 10.068 125.904 10.068H124.416C124.16 10.068 123.928 10.132 123.72 10.26C123.512 10.372 123.336 10.524 123.192 10.716C123.048 10.908 122.928 11.14 122.832 11.412C122.752 11.668 122.712 11.94 122.712 12.228V12.348ZM140.685 9.66H135.909C135.701 9.66 135.525 9.7 135.381 9.78C135.253 9.844 135.141 9.94 135.045 10.068C134.949 10.196 134.877 10.34 134.829 10.5C134.781 10.644 134.757 10.788 134.757 10.932C134.757 11.236 134.853 11.516 135.045 11.772C135.253 12.012 135.501 12.132 135.789 12.132H138.477C139.037 12.132 139.525 12.228 139.941 12.42C140.373 12.612 140.725 12.876 140.997 13.212C141.285 13.548 141.493 13.948 141.621 14.412C141.765 14.876 141.837 15.372 141.837 15.9V15.972C141.837 16.5 141.749 16.98 141.573 17.412C141.413 17.844 141.181 18.212 140.877 18.516C140.573 18.82 140.213 19.06 139.797 19.236C139.381 19.412 138.941 19.5 138.477 19.5H132.669V17.124H137.661C138.029 17.124 138.365 17.02 138.669 16.812C138.989 16.604 139.157 16.292 139.173 15.876V15.9C139.173 15.66 139.125 15.46 139.029 15.3C138.949 15.14 138.837 15.012 138.693 14.916C138.549 14.804 138.389 14.724 138.213 14.676C138.037 14.628 137.853 14.604 137.661 14.604H135.501C134.797 14.604 134.213 14.492 133.749 14.268C133.301 14.044 132.941 13.756 132.669 13.404C132.413 13.052 132.237 12.652 132.141 12.204C132.045 11.756 131.997 11.3 131.997 10.836C131.997 10.356 132.069 9.892 132.213 9.444C132.357 8.996 132.565 8.604 132.837 8.268C133.125 7.916 133.477 7.644 133.893 7.452C134.309 7.26 134.781 7.164 135.309 7.164H140.685V9.66Z" fill="#CF0C0C"/>
<path d="M9.01636 17.25V18.257C9.0164 18.6511 8.9388 19.0414 8.78798 19.4055C8.63716 19.7696 8.41607 20.1004 8.13736 20.379L7.51636 21H16.5164L15.8954 20.379C15.6166 20.1004 15.3956 19.7696 15.2447 19.4055C15.0939 19.0414 15.0163 18.6511 15.0164 18.257V17.25M21.0164 5.25V15C21.0164 15.5967 20.7793 16.169 20.3573 16.591C19.9354 17.0129 19.3631 17.25 18.7664 17.25H5.26636C4.66962 17.25 4.09732 17.0129 3.67537 16.591C3.25341 16.169 3.01636 15.5967 3.01636 15V5.25M21.0164 5.25C21.0164 4.65326 20.7793 4.08097 20.3573 3.65901C19.9354 3.23705 19.3631 3 18.7664 3H5.26636C4.66962 3 4.09732 3.23705 3.67537 3.65901C3.25341 4.08097 3.01636 4.65326 3.01636 5.25M21.0164 5.25V12C21.0164 12.5967 20.7793 13.169 20.3573 13.591C19.9354 14.0129 19.3631 14.25 18.7664 14.25H5.26636C4.66962 14.25 4.09732 14.0129 3.67537 13.591C3.25341 13.169 3.01636 12.5967 3.01636 12V5.25" stroke="#CF0C0C" stroke-width="2" stroke-linecap="round" stroke-linejoin="round"/>
</svg>
