<svg width="95" height="34" viewBox="0 0 95 34" fill="none" xmlns="http://www.w3.org/2000/svg">
<path d="M47.4724 21H44.4484V14.184H39.1924V21H36.1444V4.656H39.1924V11.448H44.4484V4.656H47.4724V21ZM54.8015 8.784C55.5055 8.784 56.1295 8.896 56.6735 9.12C57.2335 9.328 57.7055 9.624 58.0895 10.008C58.4895 10.392 58.7935 10.856 59.0015 11.4C59.2095 11.944 59.3135 12.56 59.3135 13.248V16.536C59.3135 17.208 59.2095 17.824 59.0015 18.384C58.7935 18.928 58.4895 19.4 58.0895 19.8C57.7055 20.184 57.2335 20.48 56.6735 20.688C56.1295 20.896 55.5055 21 54.8015 21H53.8175C53.1295 21 52.5055 20.896 51.9455 20.688C51.3855 20.48 50.9055 20.184 50.5055 19.8C50.1215 19.4 49.8255 18.928 49.6175 18.384C49.4255 17.824 49.3295 17.208 49.3295 16.536V13.248C49.3295 12.56 49.4255 11.944 49.6175 11.4C49.8255 10.856 50.1215 10.392 50.5055 10.008C50.9055 9.624 51.3855 9.328 51.9455 9.12C52.5055 8.896 53.1295 8.784 53.8175 8.784H54.8015ZM53.8175 11.544C53.3215 11.544 52.8975 11.712 52.5455 12.048C52.2095 12.368 52.0415 12.792 52.0415 13.32V16.44C52.0415 16.968 52.2095 17.4 52.5455 17.736C52.8975 18.072 53.3215 18.24 53.8175 18.24H54.8015C55.3135 18.24 55.7295 18.072 56.0495 17.736C56.3855 17.4 56.5535 16.968 56.5535 16.44V13.32C56.5535 12.792 56.3855 12.368 56.0495 12.048C55.7295 11.712 55.3135 11.544 54.8015 11.544H53.8175ZM73.3676 11.52C72.9516 11.52 72.6156 11.576 72.3596 11.688C72.1036 11.784 71.9036 11.92 71.7596 12.096C71.6316 12.272 71.5436 12.48 71.4956 12.72C71.4476 12.96 71.4236 13.224 71.4236 13.512V21H68.6156V13.536C68.6156 13.248 68.5916 12.984 68.5436 12.744C68.4956 12.488 68.3996 12.272 68.2556 12.096C68.1276 11.92 67.9356 11.784 67.6796 11.688C67.4236 11.576 67.0796 11.52 66.6476 11.52H66.0716C65.6556 11.52 65.3116 11.576 65.0396 11.688C64.7836 11.784 64.5836 11.92 64.4396 12.096C64.2956 12.272 64.1916 12.488 64.1276 12.744C64.0796 12.984 64.0556 13.248 64.0556 13.536V21H61.2476V8.784H64.0556V9.144C64.6796 8.904 65.3436 8.784 66.0476 8.784H67.1036C67.7436 8.784 68.3116 8.88 68.8076 9.072C69.3036 9.264 69.7276 9.528 70.0796 9.864C70.4636 9.528 70.9116 9.264 71.4236 9.072C71.9356 8.88 72.5116 8.784 73.1516 8.784H74.3996C75.1036 8.784 75.7276 8.904 76.2716 9.144C76.8156 9.384 77.2636 9.704 77.6156 10.104C77.9836 10.488 78.2556 10.936 78.4316 11.448C78.6236 11.944 78.7196 12.448 78.7196 12.96V21H75.9356V13.536C75.9356 13.248 75.9116 12.984 75.8636 12.744C75.8156 12.488 75.7196 12.272 75.5756 12.096C75.4316 11.92 75.2316 11.784 74.9756 11.688C74.7196 11.576 74.3836 11.52 73.9676 11.52H73.3676ZM80.4328 13.128C80.4328 12.536 80.5448 11.984 80.7688 11.472C80.9928 10.944 81.2888 10.48 81.6568 10.08C82.0248 9.68 82.4488 9.368 82.9288 9.144C83.4088 8.904 83.8888 8.784 84.3688 8.784H87.1048C87.7288 8.784 88.2808 8.92 88.7608 9.192C89.2568 9.448 89.6648 9.784 89.9848 10.2C90.3208 10.6 90.5768 11.056 90.7528 11.568C90.9448 12.064 91.0408 12.552 91.0408 13.032V16.128H83.2648V16.776C83.2648 17.352 83.4248 17.76 83.7448 18C84.0648 18.24 84.4888 18.36 85.0168 18.36H90.6088V21.048H84.3928C83.8488 21.048 83.3368 20.944 82.8568 20.736C82.3768 20.512 81.9528 20.216 81.5848 19.848C81.2328 19.48 80.9528 19.04 80.7448 18.528C80.5368 18.016 80.4328 17.456 80.4328 16.848V13.128ZM83.2888 13.848H88.2568V13.728C88.2568 13.104 88.0968 12.592 87.7768 12.192C87.4568 11.776 87.0248 11.568 86.4808 11.568H84.9928C84.7368 11.568 84.5048 11.632 84.2968 11.76C84.0888 11.872 83.9128 12.024 83.7688 12.216C83.6248 12.408 83.5048 12.64 83.4088 12.912C83.3288 13.168 83.2888 13.44 83.2888 13.728V13.848Z" fill="#CF0C0C"/>
<rect y="31" width="94" height="3" fill="#CF0C0C"/>
<path d="M5.26636 12.0001L14.2204 3.04507C14.6604 2.60607 15.3724 2.60607 15.8114 3.04507L24.7664 12.0001M7.51636 9.75007V19.8751C7.51636 20.4961 8.02036 21.0001 8.64136 21.0001H12.7664V16.1251C12.7664 15.5041 13.2704 15.0001 13.8914 15.0001H16.1414C16.7624 15.0001 17.2664 15.5041 17.2664 16.1251V21.0001H21.3914C22.0124 21.0001 22.5164 20.4961 22.5164 19.8751V9.75007M11.2664 21.0001H19.5164" stroke="#CF0C0C" stroke-width="2" stroke-linecap="round" stroke-linejoin="round"/>
</svg>
