<svg width="91" height="24" viewBox="0 0 91 24" fill="none" xmlns="http://www.w3.org/2000/svg">
<path d="M44.456 21H41.432V14.184H36.176V21H33.128V4.656H36.176V11.448H41.432V4.656H44.456V21ZM51.7852 8.784C52.4892 8.784 53.1132 8.896 53.6572 9.12C54.2172 9.328 54.6892 9.624 55.0732 10.008C55.4732 10.392 55.7772 10.856 55.9852 11.4C56.1932 11.944 56.2972 12.56 56.2972 13.248V16.536C56.2972 17.208 56.1932 17.824 55.9852 18.384C55.7772 18.928 55.4732 19.4 55.0732 19.8C54.6892 20.184 54.2172 20.48 53.6572 20.688C53.1132 20.896 52.4892 21 51.7852 21H50.8012C50.1132 21 49.4892 20.896 48.9292 20.688C48.3692 20.48 47.8892 20.184 47.4892 19.8C47.1052 19.4 46.8092 18.928 46.6012 18.384C46.4092 17.824 46.3132 17.208 46.3132 16.536V13.248C46.3132 12.56 46.4092 11.944 46.6012 11.4C46.8092 10.856 47.1052 10.392 47.4892 10.008C47.8892 9.624 48.3692 9.328 48.9292 9.12C49.4892 8.896 50.1132 8.784 50.8012 8.784H51.7852ZM50.8012 11.544C50.3052 11.544 49.8812 11.712 49.5292 12.048C49.1932 12.368 49.0252 12.792 49.0252 13.32V16.44C49.0252 16.968 49.1932 17.4 49.5292 17.736C49.8812 18.072 50.3052 18.24 50.8012 18.24H51.7852C52.2972 18.24 52.7132 18.072 53.0332 17.736C53.3692 17.4 53.5372 16.968 53.5372 16.44V13.32C53.5372 12.792 53.3692 12.368 53.0332 12.048C52.7132 11.712 52.2972 11.544 51.7852 11.544H50.8012ZM70.3513 11.52C69.9353 11.52 69.5993 11.576 69.3433 11.688C69.0873 11.784 68.8873 11.92 68.7433 12.096C68.6153 12.272 68.5273 12.48 68.4793 12.72C68.4313 12.96 68.4073 13.224 68.4073 13.512V21H65.5993V13.536C65.5993 13.248 65.5753 12.984 65.5273 12.744C65.4793 12.488 65.3833 12.272 65.2393 12.096C65.1113 11.92 64.9193 11.784 64.6633 11.688C64.4073 11.576 64.0633 11.52 63.6313 11.52H63.0553C62.6393 11.52 62.2953 11.576 62.0233 11.688C61.7673 11.784 61.5673 11.92 61.4233 12.096C61.2793 12.272 61.1753 12.488 61.1113 12.744C61.0633 12.984 61.0393 13.248 61.0393 13.536V21H58.2313V8.784H61.0393V9.144C61.6633 8.904 62.3273 8.784 63.0312 8.784H64.0872C64.7273 8.784 65.2953 8.88 65.7913 9.072C66.2873 9.264 66.7113 9.528 67.0633 9.864C67.4473 9.528 67.8953 9.264 68.4073 9.072C68.9193 8.88 69.4953 8.784 70.1353 8.784H71.3833C72.0873 8.784 72.7113 8.904 73.2553 9.144C73.7993 9.384 74.2473 9.704 74.5993 10.104C74.9673 10.488 75.2393 10.936 75.4153 11.448C75.6073 11.944 75.7033 12.448 75.7033 12.96V21H72.9193V13.536C72.9193 13.248 72.8953 12.984 72.8473 12.744C72.7993 12.488 72.7033 12.272 72.5593 12.096C72.4153 11.92 72.2153 11.784 71.9593 11.688C71.7033 11.576 71.3673 11.52 70.9513 11.52H70.3513ZM77.4164 13.128C77.4164 12.536 77.5284 11.984 77.7524 11.472C77.9764 10.944 78.2724 10.48 78.6404 10.08C79.0084 9.68 79.4324 9.368 79.9124 9.144C80.3924 8.904 80.8724 8.784 81.3524 8.784H84.0884C84.7124 8.784 85.2644 8.92 85.7444 9.192C86.2404 9.448 86.6484 9.784 86.9684 10.2C87.3044 10.6 87.5604 11.056 87.7364 11.568C87.9284 12.064 88.0244 12.552 88.0244 13.032V16.128H80.2484V16.776C80.2484 17.352 80.4084 17.76 80.7284 18C81.0484 18.24 81.4724 18.36 82.0004 18.36H87.5924V21.048H81.3764C80.8324 21.048 80.3204 20.944 79.8404 20.736C79.3604 20.512 78.9364 20.216 78.5684 19.848C78.2164 19.48 77.9364 19.04 77.7284 18.528C77.5204 18.016 77.4164 17.456 77.4164 16.848V13.128ZM80.2724 13.848H85.2404V13.728C85.2404 13.104 85.0804 12.592 84.7604 12.192C84.4404 11.776 84.0084 11.568 83.4644 11.568H81.9764C81.7204 11.568 81.4884 11.632 81.2804 11.76C81.0724 11.872 80.8964 12.024 80.7524 12.216C80.6084 12.408 80.4884 12.64 80.3924 12.912C80.3124 13.168 80.2724 13.44 80.2724 13.728V13.848Z" fill="#CF0C0C"/>
<path d="M2.25 12.0001L11.204 3.04507C11.644 2.60607 12.356 2.60607 12.795 3.04507L21.75 12.0001M4.5 9.75007V19.8751C4.5 20.4961 5.004 21.0001 5.625 21.0001H9.75V16.1251C9.75 15.5041 10.254 15.0001 10.875 15.0001H13.125C13.746 15.0001 14.25 15.5041 14.25 16.1251V21.0001H18.375C18.996 21.0001 19.5 20.4961 19.5 19.8751V9.75007M8.25 21.0001H16.5" stroke="#CF0C0C" stroke-width="2" stroke-linecap="round" stroke-linejoin="round"/>
</svg>
