<svg width="132" height="36" viewBox="0 0 132 36" fill="none" xmlns="http://www.w3.org/2000/svg">
<g clip-path="url(#clip0_12_125)">
<path d="M5.33325 9.99992C5.33325 9.29267 5.6142 8.6144 6.1143 8.1143C6.6144 7.6142 7.29267 7.33325 7.99992 7.33325H23.9999C24.7072 7.33325 25.3854 7.6142 25.8855 8.1143C26.3856 8.6144 26.6666 9.29267 26.6666 9.99992V25.9999C26.6666 26.7072 26.3856 27.3854 25.8855 27.8855C25.3854 28.3856 24.7072 28.6666 23.9999 28.6666H7.99992C7.29267 28.6666 6.6144 28.3856 6.1143 27.8855C5.6142 27.3854 5.33325 26.7072 5.33325 25.9999V9.99992Z" stroke="#CF0C0C" stroke-width="2" stroke-linecap="round" stroke-linejoin="round"/>
<path d="M10.6667 16.6667V23.3334" stroke="#CF0C0C" stroke-width="2" stroke-linecap="round" stroke-linejoin="round"/>
<path d="M10.6667 12.6667V12.6801" stroke="#CF0C0C" stroke-width="2" stroke-linecap="round" stroke-linejoin="round"/>
<path d="M16 23.3334V16.6667" stroke="#CF0C0C" stroke-width="2" stroke-linecap="round" stroke-linejoin="round"/>
<path d="M21.3333 23.3334V19.3334C21.3333 18.6262 21.0524 17.9479 20.5523 17.4478C20.0522 16.9477 19.3739 16.6667 18.6667 16.6667C17.9594 16.6667 17.2811 16.9477 16.781 17.4478C16.281 17.9479 16 18.6262 16 19.3334" stroke="#CF0C0C" stroke-width="2" stroke-linecap="round" stroke-linejoin="round"/>
</g>
<path d="M53.3641 24.648V27H43.3801V9.72H46.1881V24.648H53.3641ZM57.9866 14.76V27H55.4066V14.76H57.9866ZM58.4186 11.064C58.4186 11.296 58.3706 11.516 58.2746 11.724C58.1866 11.932 58.0626 12.116 57.9026 12.276C57.7426 12.428 57.5546 12.552 57.3386 12.648C57.1306 12.736 56.9066 12.78 56.6666 12.78C56.4346 12.78 56.2146 12.736 56.0066 12.648C55.8066 12.552 55.6306 12.428 55.4786 12.276C55.3266 12.116 55.2026 11.932 55.1066 11.724C55.0186 11.516 54.9746 11.296 54.9746 11.064C54.9746 10.824 55.0186 10.6 55.1066 10.392C55.2026 10.184 55.3266 10.004 55.4786 9.852C55.6306 9.692 55.8066 9.568 56.0066 9.48C56.2146 9.384 56.4346 9.336 56.6666 9.336C56.9066 9.336 57.1306 9.384 57.3386 9.48C57.5546 9.568 57.7426 9.692 57.9026 9.852C58.0626 10.004 58.1866 10.184 58.2746 10.392C58.3706 10.6 58.4186 10.824 58.4186 11.064ZM63.6403 16.38C63.9043 16.108 64.1763 15.864 64.4563 15.648C64.7443 15.424 65.0483 15.232 65.3683 15.072C65.6883 14.912 66.0283 14.788 66.3883 14.7C66.7483 14.612 67.1403 14.568 67.5643 14.568C68.2363 14.568 68.8243 14.68 69.3283 14.904C69.8403 15.128 70.2683 15.444 70.6123 15.852C70.9643 16.26 71.2283 16.752 71.4043 17.328C71.5803 17.896 71.6683 18.524 71.6683 19.212V27H69.1003V19.212C69.1003 18.388 68.9083 17.748 68.5243 17.292C68.1483 16.836 67.5723 16.608 66.7963 16.608C66.2203 16.608 65.6843 16.74 65.1883 17.004C64.7003 17.268 64.2403 17.628 63.8083 18.084V27H61.2283V14.76H62.7883C63.1403 14.76 63.3643 14.924 63.4603 15.252L63.6403 16.38ZM77.2614 9.24V19.536H77.8134C77.9894 19.536 78.1334 19.512 78.2454 19.464C78.3574 19.416 78.4734 19.316 78.5934 19.164L82.0254 15.24C82.1454 15.08 82.2774 14.96 82.4214 14.88C82.5654 14.8 82.7494 14.76 82.9734 14.76H85.3134L81.1854 19.416C80.9454 19.728 80.6814 19.976 80.3934 20.16C80.5534 20.272 80.6934 20.4 80.8134 20.544C80.9334 20.68 81.0494 20.836 81.1614 21.012L85.5654 27H83.2614C83.0534 27 82.8734 26.968 82.7214 26.904C82.5774 26.832 82.4494 26.704 82.3374 26.52L78.7974 21.72C78.6774 21.536 78.5574 21.42 78.4374 21.372C78.3174 21.316 78.1374 21.288 77.8974 21.288H77.2614V27H74.6814V9.24H77.2614ZM94.5922 19.5C94.5922 19.068 94.5282 18.668 94.4002 18.3C94.2802 17.924 94.1002 17.6 93.8602 17.328C93.6202 17.048 93.3202 16.832 92.9602 16.68C92.6082 16.52 92.2002 16.44 91.7362 16.44C90.8002 16.44 90.0642 16.708 89.5282 17.244C88.9922 17.78 88.6522 18.532 88.5082 19.5H94.5922ZM88.4362 21.084C88.4682 21.78 88.5762 22.384 88.7602 22.896C88.9442 23.4 89.1882 23.82 89.4922 24.156C89.8042 24.492 90.1722 24.744 90.5962 24.912C91.0282 25.072 91.5082 25.152 92.0362 25.152C92.5402 25.152 92.9762 25.096 93.3442 24.984C93.7122 24.864 94.0322 24.736 94.3042 24.6C94.5762 24.456 94.8082 24.328 95.0002 24.216C95.1922 24.096 95.3682 24.036 95.5282 24.036C95.7362 24.036 95.8962 24.116 96.0082 24.276L96.7402 25.224C96.4362 25.584 96.0922 25.888 95.7082 26.136C95.3242 26.384 94.9162 26.588 94.4842 26.748C94.0522 26.9 93.6082 27.008 93.1522 27.072C92.6962 27.144 92.2522 27.18 91.8202 27.18C90.9722 27.18 90.1842 27.04 89.4562 26.76C88.7362 26.472 88.1082 26.052 87.5722 25.5C87.0442 24.948 86.6282 24.264 86.3242 23.448C86.0282 22.632 85.8802 21.692 85.8802 20.628C85.8802 19.78 86.0122 18.988 86.2762 18.252C86.5482 17.516 86.9322 16.876 87.4282 16.332C87.9322 15.788 88.5402 15.36 89.2522 15.048C89.9722 14.728 90.7842 14.568 91.6882 14.568C92.4402 14.568 93.1362 14.692 93.7762 14.94C94.4162 15.18 94.9682 15.536 95.4322 16.008C95.8962 16.48 96.2562 17.06 96.5122 17.748C96.7762 18.428 96.9082 19.204 96.9082 20.076C96.9082 20.476 96.8642 20.744 96.7762 20.88C96.6882 21.016 96.5282 21.084 96.2962 21.084H88.4362ZM107.126 17.772C106.766 17.308 106.37 16.984 105.938 16.8C105.506 16.616 105.038 16.524 104.534 16.524C103.526 16.524 102.738 16.896 102.17 17.64C101.602 18.376 101.318 19.468 101.318 20.916C101.318 21.668 101.382 22.312 101.51 22.848C101.638 23.376 101.822 23.808 102.062 24.144C102.302 24.48 102.594 24.724 102.938 24.876C103.282 25.028 103.67 25.104 104.102 25.104C104.758 25.104 105.322 24.964 105.794 24.684C106.274 24.396 106.718 23.992 107.126 23.472V17.772ZM109.706 9.24V27H108.146C107.802 27 107.582 26.836 107.486 26.508L107.258 25.176C106.746 25.776 106.162 26.26 105.506 26.628C104.858 26.996 104.102 27.18 103.238 27.18C102.55 27.18 101.926 27.044 101.366 26.772C100.806 26.492 100.326 26.088 99.9262 25.56C99.5262 25.032 99.2142 24.38 98.9902 23.604C98.7742 22.82 98.6662 21.924 98.6662 20.916C98.6662 20.004 98.7862 19.16 99.0262 18.384C99.2742 17.608 99.6262 16.936 100.082 16.368C100.538 15.792 101.09 15.344 101.738 15.024C102.394 14.696 103.126 14.532 103.934 14.532C104.654 14.532 105.266 14.648 105.77 14.88C106.274 15.104 106.726 15.42 107.126 15.828V9.24H109.706ZM115.549 14.76V27H112.969V14.76H115.549ZM115.981 11.064C115.981 11.296 115.933 11.516 115.837 11.724C115.749 11.932 115.625 12.116 115.465 12.276C115.305 12.428 115.117 12.552 114.901 12.648C114.693 12.736 114.469 12.78 114.229 12.78C113.997 12.78 113.777 12.736 113.569 12.648C113.369 12.552 113.193 12.428 113.041 12.276C112.889 12.116 112.765 11.932 112.669 11.724C112.581 11.516 112.537 11.296 112.537 11.064C112.537 10.824 112.581 10.6 112.669 10.392C112.765 10.184 112.889 10.004 113.041 9.852C113.193 9.692 113.369 9.568 113.569 9.48C113.777 9.384 113.997 9.336 114.229 9.336C114.469 9.336 114.693 9.384 114.901 9.48C115.117 9.568 115.305 9.692 115.465 9.852C115.625 10.004 115.749 10.184 115.837 10.392C115.933 10.6 115.981 10.824 115.981 11.064ZM121.203 16.38C121.467 16.108 121.739 15.864 122.019 15.648C122.307 15.424 122.611 15.232 122.931 15.072C123.251 14.912 123.591 14.788 123.951 14.7C124.311 14.612 124.703 14.568 125.127 14.568C125.799 14.568 126.387 14.68 126.891 14.904C127.403 15.128 127.831 15.444 128.175 15.852C128.527 16.26 128.791 16.752 128.967 17.328C129.143 17.896 129.231 18.524 129.231 19.212V27H126.663V19.212C126.663 18.388 126.471 17.748 126.087 17.292C125.711 16.836 125.135 16.608 124.359 16.608C123.783 16.608 123.247 16.74 122.751 17.004C122.263 17.268 121.803 17.628 121.371 18.084V27H118.791V14.76H120.351C120.703 14.76 120.927 14.924 121.023 15.252L121.203 16.38Z" fill="#F6F6F6"/>
<defs>
<clipPath id="clip0_12_125">
<rect width="32" height="32" fill="white" transform="translate(0 2)"/>
</clipPath>
</defs>
</svg>
