<svg width="119" height="24" viewBox="0 0 119 24" fill="none" xmlns="http://www.w3.org/2000/svg">
<path d="M21.6504 8.25C21.6504 5.765 19.5514 3.75 16.9624 3.75C15.0274 3.75 13.3654 4.876 12.6504 6.483C11.9354 4.876 10.2734 3.75 8.33739 3.75C5.75039 3.75 3.65039 5.765 3.65039 8.25C3.65039 15.47 12.6504 20.25 12.6504 20.25C12.6504 20.25 21.6504 15.47 21.6504 8.25Z" stroke="#CF0C0C" stroke-width="2" stroke-linecap="round" stroke-linejoin="round"/>
<path d="M40.4984 2.656C41.1224 2.656 41.7064 2.776 42.2504 3.016C42.7944 3.24 43.2584 3.552 43.6424 3.952C44.0424 4.352 44.3544 4.824 44.5784 5.368C44.8184 5.912 44.9384 6.488 44.9384 7.096V7.816C44.9384 8.424 44.8184 9 44.5784 9.544C44.3544 10.072 44.0424 10.544 43.6424 10.96C43.2584 11.36 42.7944 11.672 42.2504 11.896C41.7064 12.12 41.1224 12.232 40.4984 12.232H36.3704V19H33.4904V2.656H40.4984ZM36.3704 5.512V9.376H40.0184C40.7064 9.376 41.2104 9.208 41.5304 8.872C41.8504 8.536 42.0104 8.064 42.0104 7.456C42.0104 6.88 41.8504 6.416 41.5304 6.064C41.2104 5.696 40.7064 5.512 40.0184 5.512H36.3704ZM49.6902 9.28C49.9142 8.912 50.2102 8.592 50.5782 8.32C50.9622 8.032 51.3782 7.792 51.8262 7.6C52.2902 7.408 52.7782 7.264 53.2902 7.168C53.8022 7.072 54.3142 7.024 54.8262 7.024H55.1382V10H54.8262C54.2502 10 53.6582 10.12 53.0502 10.36C52.4422 10.584 51.8822 10.888 51.3702 11.272C50.8742 11.64 50.4662 12.056 50.1462 12.52C49.8422 12.984 49.6902 13.448 49.6902 13.912V19H46.7142V6.688H49.6902V9.28ZM62.045 6.784C62.749 6.784 63.373 6.896 63.917 7.12C64.477 7.328 64.949 7.624 65.333 8.008C65.733 8.392 66.037 8.856 66.245 9.4C66.453 9.944 66.557 10.56 66.557 11.248V14.536C66.557 15.208 66.453 15.824 66.245 16.384C66.037 16.928 65.733 17.4 65.333 17.8C64.949 18.184 64.477 18.48 63.917 18.688C63.373 18.896 62.749 19 62.045 19H61.061C60.373 19 59.749 18.896 59.189 18.688C58.629 18.48 58.149 18.184 57.749 17.8C57.365 17.4 57.069 16.928 56.861 16.384C56.669 15.824 56.573 15.208 56.573 14.536V11.248C56.573 10.56 56.669 9.944 56.861 9.4C57.069 8.856 57.365 8.392 57.749 8.008C58.149 7.624 58.629 7.328 59.189 7.12C59.749 6.896 60.373 6.784 61.061 6.784H62.045ZM61.061 9.544C60.565 9.544 60.141 9.712 59.789 10.048C59.453 10.368 59.285 10.792 59.285 11.32V14.44C59.285 14.968 59.453 15.4 59.789 15.736C60.141 16.072 60.565 16.24 61.061 16.24H62.045C62.557 16.24 62.973 16.072 63.293 15.736C63.629 15.4 63.797 14.968 63.797 14.44V11.32C63.797 10.792 63.629 10.368 63.293 10.048C62.973 9.712 62.557 9.544 62.045 9.544H61.061ZM71.035 5.464H68.395V2.656H71.035V5.464ZM66.067 20.584H66.571C67.115 20.584 67.539 20.416 67.843 20.08C68.147 19.76 68.299 19.336 68.299 18.808V6.784H71.083V18.712C71.083 19.384 70.995 19.992 70.819 20.536C70.643 21.096 70.371 21.568 70.003 21.952C69.635 22.336 69.163 22.632 68.587 22.84C68.027 23.064 67.355 23.176 66.571 23.176H66.067V20.584ZM72.934 11.128C72.934 10.536 73.046 9.984 73.27 9.472C73.494 8.944 73.79 8.48 74.158 8.08C74.526 7.68 74.95 7.368 75.43 7.144C75.91 6.904 76.39 6.784 76.87 6.784H79.606C80.23 6.784 80.782 6.92 81.262 7.192C81.758 7.448 82.166 7.784 82.486 8.2C82.822 8.6 83.078 9.056 83.254 9.568C83.446 10.064 83.542 10.552 83.542 11.032V14.128H75.766V14.776C75.766 15.352 75.926 15.76 76.246 16C76.566 16.24 76.99 16.36 77.518 16.36H83.11V19.048H76.894C76.35 19.048 75.838 18.944 75.358 18.736C74.878 18.512 74.454 18.216 74.086 17.848C73.734 17.48 73.454 17.04 73.246 16.528C73.038 16.016 72.934 15.456 72.934 14.848V11.128ZM75.79 11.848H80.758V11.728C80.758 11.104 80.598 10.592 80.278 10.192C79.958 9.776 79.526 9.568 78.982 9.568H77.494C77.238 9.568 77.006 9.632 76.798 9.76C76.59 9.872 76.414 10.024 76.27 10.216C76.126 10.408 76.006 10.64 75.91 10.912C75.83 11.168 75.79 11.44 75.79 11.728V11.848ZM84.7386 6.784H86.9946V2.656H89.8266V6.784H92.0826V9.544H89.8266V19H86.9946V9.544H84.7386V6.784ZM98.6309 6.784C99.3349 6.784 99.9589 6.896 100.503 7.12C101.063 7.328 101.535 7.624 101.919 8.008C102.319 8.392 102.623 8.856 102.831 9.4C103.039 9.944 103.143 10.56 103.143 11.248V14.536C103.143 15.208 103.039 15.824 102.831 16.384C102.623 16.928 102.319 17.4 101.919 17.8C101.535 18.184 101.063 18.48 100.503 18.688C99.9589 18.896 99.3349 19 98.6309 19H97.6469C96.9589 19 96.3349 18.896 95.7749 18.688C95.2149 18.48 94.7349 18.184 94.3349 17.8C93.9509 17.4 93.6549 16.928 93.4469 16.384C93.2549 15.824 93.1589 15.208 93.1589 14.536V11.248C93.1589 10.56 93.2549 9.944 93.4469 9.4C93.6549 8.856 93.9509 8.392 94.3349 8.008C94.7349 7.624 95.2149 7.328 95.7749 7.12C96.3349 6.896 96.9589 6.784 97.6469 6.784H98.6309ZM97.6469 9.544C97.1509 9.544 96.7269 9.712 96.3749 10.048C96.0389 10.368 95.8709 10.792 95.8709 11.32V14.44C95.8709 14.968 96.0389 15.4 96.3749 15.736C96.7269 16.072 97.1509 16.24 97.6469 16.24H98.6309C99.1429 16.24 99.5589 16.072 99.8789 15.736C100.215 15.4 100.383 14.968 100.383 14.44V11.32C100.383 10.792 100.215 10.368 99.8789 10.048C99.5589 9.712 99.1429 9.544 98.6309 9.544H97.6469ZM113.333 9.16H108.557C108.349 9.16 108.173 9.2 108.029 9.28C107.901 9.344 107.789 9.44 107.693 9.568C107.597 9.696 107.525 9.84 107.477 10C107.429 10.144 107.405 10.288 107.405 10.432C107.405 10.736 107.501 11.016 107.693 11.272C107.901 11.512 108.149 11.632 108.437 11.632H111.125C111.685 11.632 112.173 11.728 112.589 11.92C113.021 12.112 113.373 12.376 113.645 12.712C113.933 13.048 114.141 13.448 114.269 13.912C114.413 14.376 114.485 14.872 114.485 15.4V15.472C114.485 16 114.397 16.48 114.221 16.912C114.061 17.344 113.829 17.712 113.525 18.016C113.221 18.32 112.861 18.56 112.445 18.736C112.029 18.912 111.589 19 111.125 19H105.317V16.624H110.309C110.677 16.624 111.013 16.52 111.317 16.312C111.637 16.104 111.805 15.792 111.821 15.376V15.4C111.821 15.16 111.773 14.96 111.677 14.8C111.597 14.64 111.485 14.512 111.341 14.416C111.197 14.304 111.037 14.224 110.861 14.176C110.685 14.128 110.501 14.104 110.309 14.104H108.149C107.445 14.104 106.861 13.992 106.397 13.768C105.949 13.544 105.589 13.256 105.317 12.904C105.061 12.552 104.885 12.152 104.789 11.704C104.693 11.256 104.645 10.8 104.645 10.336C104.645 9.856 104.717 9.392 104.861 8.944C105.005 8.496 105.213 8.104 105.485 7.768C105.773 7.416 106.125 7.144 106.541 6.952C106.957 6.76 107.429 6.664 107.957 6.664H113.333V9.16Z" fill="#CF0C0C"/>
</svg>
